<svg id="Capa_1" enable-background="new 0 0 512 512" height="512" viewBox="0 0 512 512" width="512" xmlns="http://www.w3.org/2000/svg"><g><path d="m440.271 338.5c4.143 0 7.5-3.357 7.5-7.5v-296.5c0-15.163-12.336-27.5-27.5-27.5h-293.196c-2.567-4.189-7.173-7-12.436-7h-35.82c-8.045 0-14.591 6.546-14.591 14.591v482.818c0 8.045 6.546 14.591 14.591 14.591h35.819c5.263 0 9.869-2.811 12.436-7h293.197c15.164 0 27.5-12.337 27.5-27.5v-111.521c0-4.143-3.357-7.5-7.5-7.5s-7.5 3.357-7.5 7.5v111.521c0 6.893-5.607 12.5-12.5 12.5h-291.042v-468h291.043c6.893 0 12.5 5.607 12.5 12.5v296.5c-.001 4.143 3.357 7.5 7.499 7.5zm-361.042-323.5h35v482h-35z"/><path d="m382.018 178.881c-1.484-4.569-5.359-7.837-10.114-8.528l-17.301-2.514-7.737-15.677c-2.125-4.308-6.43-6.984-11.233-6.984h-.001c-4.804 0-9.109 2.676-11.235 6.983l-7.736 15.678-17.302 2.514c-4.754.691-8.629 3.959-10.113 8.527-1.484 4.569-.27 9.49 3.17 12.844l12.52 12.202-2.956 17.232c-.812 4.734 1.099 9.43 4.985 12.254 3.886 2.822 8.941 3.188 13.194.953l15.474-8.136 15.474 8.136c8.732 4.995 20.234-3.34 18.179-13.209l-2.956-17.23 12.519-12.202c3.437-3.353 4.653-8.274 3.169-12.843zm-27.092 15.212c-2.951 2.878-4.298 7.022-3.602 11.089l2.329 13.576-12.191-6.409c-3.65-1.922-8.011-1.921-11.661-.001l-12.192 6.41 2.328-13.574c.699-4.066-.648-8.213-3.603-11.093l-9.864-9.614 13.634-1.98c4.081-.594 7.607-3.156 9.432-6.854l6.096-12.353 6.096 12.352c1.824 3.698 5.351 6.261 9.434 6.854l13.631 1.98z"/><path d="m358.11 388.213h-160.34c-4.143 0-7.5 3.357-7.5 7.5s3.357 7.5 7.5 7.5h160.34c4.143 0 7.5-3.357 7.5-7.5s-3.357-7.5-7.5-7.5z"/><path d="m358.11 79.365c4.143 0 7.5-3.357 7.5-7.5s-3.357-7.5-7.5-7.5h-160.34c-4.143 0-7.5 3.357-7.5 7.5s3.357 7.5 7.5 7.5z"/><path d="m358.11 432.545h-90.638c-4.143 0-7.5 3.357-7.5 7.5s3.357 7.5 7.5 7.5h90.638c4.143 0 7.5-3.357 7.5-7.5s-3.357-7.5-7.5-7.5z"/><path d="m197.771 432.545c-4.143 0-7.5 3.357-7.5 7.5s3.357 7.5 7.5 7.5h34.851c4.143 0 7.5-3.357 7.5-7.5s-3.357-7.5-7.5-7.5z"/><path d="m364.573 284.821c-2.372-6.18-8.2-10.077-14.796-9.833-12.241.381-24.265-1.394-35.74-5.273-3.919-1.323-8.18.779-9.507 4.704-1.326 3.924.779 8.18 4.704 9.507 13.176 4.453 26.974 6.494 41.009 6.055.309-.053.532.404.212.645-11.29 9.543-29.982 21.367-54.914 23.502-35.385 3.033-69.79-13.125-87.676-41.157-18.769-29.416-13.124-61.107-10.947-70.12 7.532-31.185 29.634-50.173 46.85-60.611.289-.214.698.139.55.363-11.816 29.971-10.475 62.728 3.683 89.871 6.809 13.055 16.28 24.384 28.151 33.671 3.26 2.553 7.975 1.976 10.528-1.286 2.552-3.262 1.977-7.976-1.286-10.528-10.175-7.96-18.281-17.647-24.094-28.793-12.145-23.286-13.248-51.509-3.027-77.433 2.441-6.195.722-12.979-4.383-17.283-5.141-4.334-12.167-4.884-17.9-1.408-19.649 11.915-44.908 33.717-53.651 69.916-3.241 13.417-8.474 48.238 12.883 81.71 19.193 30.083 54.509 48.451 91.88 48.449 3.227 0 6.473-.137 9.72-.415 28.863-2.472 50.363-16.042 63.318-26.991 5.071-4.289 6.811-11.064 4.433-17.262z"/></g></svg>