<?xml version="1.0" encoding="UTF-8"?>
<svg xmlns="http://www.w3.org/2000/svg" viewBox="0 0 128 128" width="512" height="512"><g id="Flat"><path d="M125,19.665v33.94a5.449,5.449,0,0,1-5.442,5.452H8.442A5.449,5.449,0,0,1,3,53.605V19.665a5.449,5.449,0,0,1,5.442-5.452H119.558A5.449,5.449,0,0,1,125,19.665Z" fill="#d3d6d8"/><path d="M125,19.66V53.61a5.448,5.448,0,0,1-5.44,5.45H8.44A5.448,5.448,0,0,1,3,53.61v-.85H113.26a5.45,5.45,0,0,0,5.45-5.45V14.21h.85A5.448,5.448,0,0,1,125,19.66Z" fill="#c3cad5"/><path d="M15.194,23.54H36.986a3.744,3.744,0,0,1,3.744,3.744V49.076a3.744,3.744,0,0,1-3.744,3.744H15.194a3.744,3.744,0,0,1-3.744-3.744V27.284A3.743,3.743,0,0,1,15.194,23.54Z" fill="#4ba2d1"/><path d="M40.73,27.28v21.8a3.741,3.741,0,0,1-3.74,3.74H15.19a3.741,3.741,0,0,1-3.74-3.74V47.92H32.08a3.743,3.743,0,0,0,3.75-3.74V23.54h1.16A3.741,3.741,0,0,1,40.73,27.28Z" fill="#3397c4"/><path d="M114.289,51.27H92.319A2.259,2.259,0,0,1,90.3,48l10.985-21.962a2.258,2.258,0,0,1,4.04,0L116.309,48A2.259,2.259,0,0,1,114.289,51.27Z" fill="#f6c538"/><path d="M114.29,51.27H92.32a2.261,2.261,0,0,1-2.1-3.09h18.87a2.26,2.26,0,0,0,2.02-3.27L101.49,25.7a2.253,2.253,0,0,1,3.83.34L116.31,48A2.26,2.26,0,0,1,114.29,51.27Z" fill="#f5b11a"/><path d="M72.692,41.119l1.373,8.022a1.133,1.133,0,0,1-1.644,1.193L65.229,46.55a1.131,1.131,0,0,0-1.055,0l-7.2,3.786a1.133,1.133,0,0,1-1.644-1.194L56.7,41.119a1.132,1.132,0,0,0-.326-1l-5.819-5.672a1.132,1.132,0,0,1,.628-1.931l8.048-1.166a1.13,1.13,0,0,0,.853-.62l3.6-7.3a1.133,1.133,0,0,1,2.032,0l3.591,7.294a1.13,1.13,0,0,0,.854.62l8.047,1.166a1.132,1.132,0,0,1,.628,1.931l-5.819,5.672A1.132,1.132,0,0,0,72.692,41.119Z" fill="#e27d36"/><path d="M73.02,40.12a1.128,1.128,0,0,0-.33,1l1.37,8.02a1.127,1.127,0,0,1-1.64,1.19l-7.19-3.78a1.165,1.165,0,0,0-1.06,0l-7.2,3.79a1.134,1.134,0,0,1-1.64-1.2l.63-3.71,5.61-2.95a1.165,1.165,0,0,1,1.06,0l7.19,3.78a1.127,1.127,0,0,0,1.64-1.19l-1.37-8.02a1.128,1.128,0,0,1,.33-1l4.17-4.06,3.62.52a1.14,1.14,0,0,1,.63,1.94Z" fill="#d7752e"/><path d="M125,74.4v33.941a5.448,5.448,0,0,1-5.442,5.451H8.442A5.448,5.448,0,0,1,3,108.336V74.4a5.449,5.449,0,0,1,5.442-5.452H119.558A5.449,5.449,0,0,1,125,74.4Z" fill="#d3d6d8"/><path d="M125,74.39v33.95a5.448,5.448,0,0,1-5.44,5.45H8.44A5.448,5.448,0,0,1,3,108.34v-.17H113.94a5.448,5.448,0,0,0,5.44-5.45V68.94h.18A5.448,5.448,0,0,1,125,74.39Z" fill="#c3cad5"/><rect x="11.449" y="76.725" width="29.279" height="29.28" rx="14.64" fill="#f6c538"/><path d="M40.73,91.37a14.644,14.644,0,0,1-24.99,10.35c-.29-.29-.56-.59-.83-.9A14.64,14.64,0,0,0,32.96,78.44a14.768,14.768,0,0,1,3.48,2.58A14.559,14.559,0,0,1,40.73,91.37Z" fill="#f5b11a"/><path d="M95.408,76.725H111.2a3.744,3.744,0,0,1,3.744,3.744v21.793A3.744,3.744,0,0,1,111.2,106H95.408a3.744,3.744,0,0,1-3.744-3.744V80.469a3.743,3.743,0,0,1,3.743-3.743Z" fill="#4ba2d1"/><path d="M114.94,80.47v21.79A3.734,3.734,0,0,1,111.2,106H95.41a3.743,3.743,0,0,1-3.75-3.74V100.9h14.43a3.743,3.743,0,0,0,3.74-3.75V76.73h1.37A3.734,3.734,0,0,1,114.94,80.47Z" fill="#3397c4"/><path d="M78.24,92.458,64.695,106,51.152,92.458a9.022,9.022,0,0,1,0-12.76,9.93,9.93,0,0,1,6.381-2.952,7.388,7.388,0,0,1,7.162,3.723,7.392,7.392,0,0,1,7.164-3.723A9.93,9.93,0,0,1,78.24,79.7,9.022,9.022,0,0,1,78.24,92.458Z" fill="#e53d54"/><path d="M78.243,92.458,64.695,106l-2.233-2.233L75.224,91.006a9.028,9.028,0,0,0,0-12.762,10.662,10.662,0,0,0-1.385-1.164,10.25,10.25,0,0,1,4.4,2.616A9.028,9.028,0,0,1,78.243,92.458Z" fill="#dc3e4d"/></g><g id="Colored_Line" data-name="Colored Line"><path d="M125,74.4v33.941a5.448,5.448,0,0,1-5.442,5.451H8.442A5.448,5.448,0,0,1,3,108.336V74.4a5.449,5.449,0,0,1,5.442-5.452H119.558A5.449,5.449,0,0,1,125,74.4Z" fill="#d3d6d8"/><path d="M125,19.665v33.94a5.449,5.449,0,0,1-5.442,5.452H8.442A5.449,5.449,0,0,1,3,53.605V19.665a5.449,5.449,0,0,1,5.442-5.452H119.558A5.449,5.449,0,0,1,125,19.665Z" fill="#d3d6d8"/><path d="M125,19.66V53.61a5.448,5.448,0,0,1-5.44,5.45H8.44A5.448,5.448,0,0,1,3,53.61v-.85H113.26a5.45,5.45,0,0,0,5.45-5.45V14.21h.85A5.448,5.448,0,0,1,125,19.66Z" fill="#c3cad5"/><path d="M15.194,23.54H36.986a3.744,3.744,0,0,1,3.744,3.744V49.076a3.744,3.744,0,0,1-3.744,3.744H15.194a3.744,3.744,0,0,1-3.744-3.744V27.284A3.743,3.743,0,0,1,15.194,23.54Z" fill="#4ba2d1"/><path d="M40.73,27.28v21.8a3.741,3.741,0,0,1-3.74,3.74H15.19a3.741,3.741,0,0,1-3.74-3.74V47.92H32.08a3.743,3.743,0,0,0,3.75-3.74V23.54h1.16A3.741,3.741,0,0,1,40.73,27.28Z" fill="#3397c4"/><path d="M114.289,51.27H92.319A2.259,2.259,0,0,1,90.3,48l10.985-21.962a2.258,2.258,0,0,1,4.04,0L116.309,48A2.259,2.259,0,0,1,114.289,51.27Z" fill="#f6c538"/><path d="M114.29,51.27H92.32a2.261,2.261,0,0,1-2.1-3.09h18.87a2.26,2.26,0,0,0,2.02-3.27L101.49,25.7a2.253,2.253,0,0,1,3.83.34L116.31,48A2.26,2.26,0,0,1,114.29,51.27Z" fill="#f5b11a"/><path d="M72.692,41.119l1.373,8.022a1.133,1.133,0,0,1-1.644,1.193L65.229,46.55a1.131,1.131,0,0,0-1.055,0l-7.2,3.786a1.133,1.133,0,0,1-1.644-1.194L56.7,41.119a1.132,1.132,0,0,0-.326-1l-5.819-5.672a1.132,1.132,0,0,1,.628-1.931l8.048-1.166a1.13,1.13,0,0,0,.853-.62l3.6-7.3a1.133,1.133,0,0,1,2.032,0l3.591,7.294a1.13,1.13,0,0,0,.854.62l8.047,1.166a1.132,1.132,0,0,1,.628,1.931l-5.819,5.672A1.132,1.132,0,0,0,72.692,41.119Z" fill="#e27d36"/><path d="M73.02,40.12a1.128,1.128,0,0,0-.33,1l1.37,8.02a1.127,1.127,0,0,1-1.64,1.19l-7.19-3.78a1.165,1.165,0,0,0-1.06,0l-7.2,3.79a1.134,1.134,0,0,1-1.64-1.2l.63-3.71,5.61-2.95a1.165,1.165,0,0,1,1.06,0l7.19,3.78a1.127,1.127,0,0,0,1.64-1.19l-1.37-8.02a1.128,1.128,0,0,1,.33-1l4.17-4.06,3.62.52a1.14,1.14,0,0,1,.63,1.94Z" fill="#d7752e"/><path d="M125,74.39v33.95a5.448,5.448,0,0,1-5.44,5.45H8.44A5.448,5.448,0,0,1,3,108.34v-.17H113.94a5.448,5.448,0,0,0,5.44-5.45V68.94h.18A5.448,5.448,0,0,1,125,74.39Z" fill="#c3cad5"/><rect x="11.449" y="76.725" width="29.279" height="29.28" rx="14.64" fill="#f6c538"/><path d="M40.73,91.37a14.644,14.644,0,0,1-24.99,10.35c-.29-.29-.56-.59-.83-.9A14.64,14.64,0,0,0,32.96,78.44a14.768,14.768,0,0,1,3.48,2.58A14.559,14.559,0,0,1,40.73,91.37Z" fill="#f5b11a"/><path d="M95.408,76.725H111.2a3.744,3.744,0,0,1,3.744,3.744v21.793A3.744,3.744,0,0,1,111.2,106H95.408a3.744,3.744,0,0,1-3.744-3.744V80.469a3.743,3.743,0,0,1,3.743-3.743Z" fill="#4ba2d1"/><path d="M114.94,80.47v21.79A3.734,3.734,0,0,1,111.2,106H95.41a3.743,3.743,0,0,1-3.75-3.74V100.9h14.43a3.743,3.743,0,0,0,3.74-3.75V76.73h1.37A3.734,3.734,0,0,1,114.94,80.47Z" fill="#3397c4"/><path d="M78.24,92.458,64.695,106,51.152,92.458a9.022,9.022,0,0,1,0-12.76,9.93,9.93,0,0,1,6.381-2.952,7.388,7.388,0,0,1,7.162,3.723,7.392,7.392,0,0,1,7.164-3.723A9.93,9.93,0,0,1,78.24,79.7,9.022,9.022,0,0,1,78.24,92.458Z" fill="#e53d54"/><path d="M78.243,92.458,64.695,106l-2.233-2.233L75.224,91.006a9.028,9.028,0,0,0,0-12.762,10.662,10.662,0,0,0-1.385-1.164,10.25,10.25,0,0,1,4.4,2.616A9.028,9.028,0,0,1,78.243,92.458Z" fill="#dc3e4d"/><path d="M119.558,60.057H8.442A6.454,6.454,0,0,1,2,53.605V19.665a6.455,6.455,0,0,1,6.442-6.453H119.558A6.455,6.455,0,0,1,126,19.665v33.94A6.454,6.454,0,0,1,119.558,60.057ZM8.442,15.212A4.452,4.452,0,0,0,4,19.665v33.94a4.452,4.452,0,0,0,4.442,4.452H119.558A4.452,4.452,0,0,0,124,53.605V19.665a4.452,4.452,0,0,0-4.442-4.453Z" fill="#13243d"/><path d="M119.558,114.788H8.442A6.455,6.455,0,0,1,2,108.335V74.4a6.454,6.454,0,0,1,6.442-6.452H119.558A6.454,6.454,0,0,1,126,74.4v33.94A6.455,6.455,0,0,1,119.558,114.788ZM8.442,69.943A4.452,4.452,0,0,0,4,74.4v33.94a4.452,4.452,0,0,0,4.442,4.453H119.558A4.452,4.452,0,0,0,124,108.335V74.4a4.452,4.452,0,0,0-4.442-4.452Z" fill="#13243d"/><path d="M64.695,107a1,1,0,0,1-.707-.292L50.445,93.165a10.033,10.033,0,0,1,0-14.174,10.976,10.976,0,0,1,7.032-3.244A8.434,8.434,0,0,1,64.692,78.7a8.635,8.635,0,0,1,7.224-2.953,10.982,10.982,0,0,1,7.033,3.245,10.034,10.034,0,0,1,0,14.173h0L65.4,106.708A1,1,0,0,1,64.695,107ZM58.07,77.73c-.156,0-.316,0-.48.014a8.953,8.953,0,0,0-5.73,2.66,8.031,8.031,0,0,0,0,11.346l12.836,12.836L77.533,91.75a8.031,8.031,0,0,0,0-11.345,8.954,8.954,0,0,0-5.73-2.661,6.4,6.4,0,0,0-6.213,3.172,1,1,0,0,1-.894.553h0a1,1,0,0,1-.894-.552A6.369,6.369,0,0,0,58.07,77.73ZM78.24,92.458h0Z" fill="#13243d"/><path d="M26.089,107.005a15.64,15.64,0,1,1,15.64-15.64A15.658,15.658,0,0,1,26.089,107.005Zm0-29.279a13.64,13.64,0,1,0,13.64,13.639A13.655,13.655,0,0,0,26.089,77.726Z" fill="#13243d"/><path d="M111.2,107.005H95.408a4.748,4.748,0,0,1-4.743-4.744V80.469a4.748,4.748,0,0,1,4.743-4.743H111.2a4.749,4.749,0,0,1,4.744,4.743v21.792A4.749,4.749,0,0,1,111.2,107.005ZM95.408,77.726a2.745,2.745,0,0,0-2.743,2.743v21.792a2.746,2.746,0,0,0,2.743,2.744H111.2a2.747,2.747,0,0,0,2.744-2.744V80.469a2.746,2.746,0,0,0-2.744-2.743Z" fill="#13243d"/><path d="M114.289,52.27H92.319a3.259,3.259,0,0,1-2.914-4.717L100.39,25.591a3.259,3.259,0,0,1,5.829,0L117.2,47.554a3.259,3.259,0,0,1-2.915,4.716ZM103.3,25.79a1.234,1.234,0,0,0-1.125.7L91.194,48.448a1.259,1.259,0,0,0,1.125,1.822h21.97a1.26,1.26,0,0,0,1.126-1.822L104.43,26.486A1.236,1.236,0,0,0,103.3,25.79Z" fill="#13243d"/><path d="M56.443,51.468a2.136,2.136,0,0,1-2.1-2.494l1.372-8.023a.131.131,0,0,0-.038-.118l-5.819-5.671a2.133,2.133,0,0,1,1.183-3.638l8.047-1.166a.13.13,0,0,0,.1-.072l3.6-7.3A2.12,2.12,0,0,1,64.7,21.8h0a2.118,2.118,0,0,1,1.912,1.19l3.591,7.294a.133.133,0,0,0,.1.072l8.047,1.166a2.132,2.132,0,0,1,1.182,3.638l-5.82,5.671a.134.134,0,0,0-.037.118l1.372,8.022a2.132,2.132,0,0,1-3.094,2.247l-7.193-3.785a.136.136,0,0,0-.124,0l-7.2,3.786A2.126,2.126,0,0,1,56.443,51.468ZM64.7,23.8a.12.12,0,0,0-.119.073l-3.6,7.3a2.135,2.135,0,0,1-1.606,1.167L51.328,33.5a.12.12,0,0,0-.107.09.121.121,0,0,0,.033.136L57.073,39.4a2.134,2.134,0,0,1,.614,1.887l-1.373,8.023a.123.123,0,0,0,.053.13.12.12,0,0,0,.139.01l7.2-3.786a2.131,2.131,0,0,1,1.985,0l7.193,3.785a.133.133,0,0,0,.192-.14l-1.373-8.023a2.134,2.134,0,0,1,.613-1.886l5.821-5.672a.133.133,0,0,0-.074-.226l-8.048-1.165a2.135,2.135,0,0,1-1.607-1.169l-3.592-7.294A.118.118,0,0,0,64.7,23.8Z" fill="#13243d"/><path d="M36.986,53.82H15.194a4.749,4.749,0,0,1-4.744-4.744V27.284a4.748,4.748,0,0,1,4.744-4.743H36.986a4.747,4.747,0,0,1,4.743,4.743V49.076A4.748,4.748,0,0,1,36.986,53.82ZM15.194,24.541a2.746,2.746,0,0,0-2.744,2.743V49.076a2.747,2.747,0,0,0,2.744,2.744H36.986a2.746,2.746,0,0,0,2.743-2.744V27.284a2.745,2.745,0,0,0-2.743-2.743Z" fill="#13243d"/></g></svg>
