<svg id="Icons" height="512" viewBox="0 0 512 512" width="512" xmlns="http://www.w3.org/2000/svg"><g fill="rgb(0,0,0)"><path d="m58.57 287.54a75.74 75.74 0 0 1 -4.8 17.36c-12.88 29.82-3.4 75.39 39.53 88.75a89.21 89.21 0 0 0 9.25 2.5c22.59 4.84 38.54 12.26 54 19.43 19 9 41.08 18.62 66.86 19.25 39.13 1.46 75.86-41.61 64.55-78.39-6.44-19.68-25-31.88-43-43.67-10.33-6.77-20.96-13.77-28.43-21.77-14.94-16-17.67-35.93-18.17-43a13.75 13.75 0 0 0 2-11.06l-8.5-34.62a13.66 13.66 0 0 0 -13.3-10.42 882.79 882.79 0 0 1 -103.31 0 13.66 13.66 0 0 0 -13.25 10.47l-8.45 34.63a13.52 13.52 0 0 0 6.45 15c.41 7 .9 21.46-1.43 35.54zm10.43 68.4c-7.86-15.23-6.4-33.63-1.46-45.12a75.48 75.48 0 0 0 3.27-9.36c26.49 19.47 31.63 44 20.49 75.32-10.04-4.64-17.52-11.61-22.3-20.84zm204.66 5.17c3.72 11.36-.31 26.68-10.27 39-11.4 14.14-28 21.2-45.47 19.4a124.57 124.57 0 0 1 -20.46-3.82c6.16-38 22.91-65.11 51-82.5 11.76 8.24 21.54 16.81 25.21 27.92zm-38.66-36.94c-27.72 19.32-45.13 48.42-51.88 86.72-26.53-10.76-43.68-22.15-77.51-29.44 14.26-39.81 4.33-73-31.55-96a181.53 181.53 0 0 0 1-32.44 17.31 17.31 0 0 0 4.85-3.12c1.21-1.23 2.86-.68 3.75.66 4.4 6.31 12.88 9.15 20 6.26a17.59 17.59 0 0 0 6.33-4.25 2.44 2.44 0 0 1 1.83-.89 2.71 2.71 0 0 1 1.89 1.11 17.93 17.93 0 0 0 6 4.7 17 17 0 0 0 20.46-4.7 2.29 2.29 0 0 1 3.73-.22 16.88 16.88 0 0 0 20.75 3.1 18.08 18.08 0 0 0 5.62-5.1 3 3 0 0 1 2-1.36 2.26 2.26 0 0 1 1.8.69 16.8 16.8 0 0 0 9.88 4.38c4.21 30.64 20.05 50.93 51.05 69.9zm-158.73-117.17a883.79 883.79 0 0 0 101.29 0l8 32.4a1.93 1.93 0 0 1 -1.43-.59 17.71 17.71 0 0 0 -6.45-3.76c-7.14-2.4-15.2.62-19.5 6.75-.81 1.26-2.37 1.64-3.39.43a17.28 17.28 0 0 0 -26.08 1 2 2 0 0 1 -3.39 0 17.28 17.28 0 0 0 -26.08-1 2 2 0 0 1 -3.4-.43c-4.31-6.13-12.36-9.14-19.5-6.74a17.66 17.66 0 0 0 -6.46 3.75 1.92 1.92 0 0 1 -1.44.59z"/><path d="m215.06 213c-4.78 36.18 19 78.57 70.44 75.8 23.07-1.08 40.39 2 57.14 5 20.8 3.92 41.11 6.59 62.71 3 42.16-5 70.78-58.16 49.28-93.68-11.25-17.4-32.33-24.45-52.71-31.26-11.69-3.91-23.77-7.95-33-13.78-18.53-11.69-26.25-30.24-28.54-37a13.76 13.76 0 0 0 -.87-11.2l-17.07-31.32a13.65 13.65 0 0 0 -15.51-6.69 881.81 881.81 0 0 1 -99.93 26.35 13.65 13.65 0 0 0 -10.2 13.5l.7 35.61a13.59 13.59 0 0 0 10 12.9c3.74 10.08 10.42 37.17 7.56 52.77zm27.76 45.47c-11.49-12.72-14.77-30.89-12.92-43.25a76.86 76.86 0 0 0 .78-9.9c30.58 12.08 41.81 34.5 39 67.62-10.89-1.94-19.9-6.81-26.86-14.52zm199.18-47.25c6.49 10 6.5 25.89 0 40.36-7.43 16.59-21.65 27.65-39 30.36a123.73 123.73 0 0 1 -20.75 1.52c-3.74-38.34 5.54-68.79 28.29-92.78 13.46 4.95 25.15 10.73 31.46 20.54zm-81.13-40.5c10.2 6.44 22.36 10.67 34.27 14.66-21.87 25.75-31.29 58.32-28.05 97.08-28.4-3.63-47.89-10.28-82.45-8.69 3.63-42.14-14.43-71.67-55-84.76a180.67 180.67 0 0 0 -7.28-31.64 17.37 17.37 0 0 0 3.9-4.24c.86-1.51 2.6-1.4 3.8-.32 5.86 5 14.79 5.55 21 .94a17.53 17.53 0 0 0 5-5.73 2.43 2.43 0 0 1 1.54-1.33 2.73 2.73 0 0 1 2.12.59 17.84 17.84 0 0 0 7 3 17 17 0 0 0 18.58-9.76 2.28 2.28 0 0 1 3.55-1.16 16.9 16.9 0 0 0 20.87-2.3 18.09 18.09 0 0 0 4.12-6.37 3.61 3.61 0 0 1 .78-1.27 2.11 2.11 0 0 1 2.68-.33 16.88 16.88 0 0 0 10.7 1.74c4.3 10.42 13.86 27.88 32.91 39.89zm-51.12-84 16 29.29a1.94 1.94 0 0 1 -1.53-.2 17.66 17.66 0 0 0 -7.2-2c-7.51-.5-14.54 4.47-17.13 11.5-.47 1.42-1.87 2.19-3.18 1.28a17.27 17.27 0 0 0 -25 7.62 2 2 0 0 1 -3.28.86 17.27 17.27 0 0 0 -25.43 5.67 2 2 0 0 1 -3.39.46c-5.72-4.84-14.29-5.7-20.58-1.56a17.84 17.84 0 0 0 -5.28 5.28 2 2 0 0 1 -1.24.94l-.66-33.32a886.54 886.54 0 0 0 97.94-25.84z"/></g></svg>