<svg height="512" viewBox="0 0 263.87 275.19" width="512" xmlns="http://www.w3.org/2000/svg"><g id="Layer_2" data-name="Layer 2"><g id="Layer_1-2" data-name="Layer 1"><path id="Baby_Cariage" d="m227.58 202.61a36.07 36.07 0 0 0 -22.51 7.88l-35.76-35.76h56.92a25.32 25.32 0 0 0 24.6-19.21l12.9-51.65a3.44 3.44 0 0 0 0-1.11.52.52 0 0 0 .11-.1 104.45 104.45 0 0 0 -31.35-72.66c-.07-.09-.1-.18-.17-.26s-.21-.11-.31-.2a104.26 104.26 0 0 0 -72.77-29.54 4.17 4.17 0 0 0 -4.18 4.16v82.42a16.87 16.87 0 0 0 -12.06 12.11h-49.74l-34.34-34.34a4.16 4.16 0 0 0 -3-1.23h-51.76a4.17 4.17 0 0 0 0 8.34h50.08l27.23 27.23h-22.7a4.19 4.19 0 0 0 -3.28 1.61 4.12 4.12 0 0 0 -.76 3.57l12.91 51.65a25.3 25.3 0 0 0 24.59 19.21h56.94l-35.77 35.76a36.26 36.26 0 1 0 13.52 32.58h64.63a36.28 36.28 0 1 0 36-40.46zm-36 32.12h-64.66a36.21 36.21 0 0 0 -7.61-18.35l39.93-39.92 39.93 39.94a36.07 36.07 0 0 0 -7.62 18.33zm63.73-136h-79.8a16.92 16.92 0 0 0 -1.83-4.38l55.58-55.58a95.83 95.83 0 0 1 26.02 59.92zm-32-65.78-55.51 55.5a16.17 16.17 0 0 0 -4.38-1.83v-78.19a95.84 95.84 0 0 1 59.87 24.48zm-64 61.42a8.53 8.53 0 1 1 -8.52 8.53 8.53 8.53 0 0 1 8.45-8.57zm-16.31 12.63a16.78 16.78 0 0 0 32.55 0h78.85l-11.62 46.46a17 17 0 0 1 -16.51 12.9h-65.27l-59.4-59.36zm-67.27 46.49-11.62-46.49h25.7l59.36 59.36h-56.94a17 17 0 0 1 -16.5-12.87zm15.16 113.35a27.95 27.95 0 1 1 16.57-50.4l-19.52 19.56a4.17 4.17 0 0 0 5.9 5.89l19.51-19.51a27.9 27.9 0 0 1 -22.46 44.51zm136.69 0a27.89 27.89 0 0 1 -22.47-44.51l19.52 19.51a4.16 4.16 0 0 0 5.89-5.89l-19.52-19.51a27.93 27.93 0 1 1 16.57 50.4z" data-name="Baby Cariage"/></g></g></svg>