<svg id="Layer_1" enable-background="new 0 0 450 450" viewBox="0 0 450 450" xmlns="http://www.w3.org/2000/svg"><g><path d="m236.3 119.3c2.7 0 4.9-2.2 4.9-4.9v-34.1c113.1 13 175.6-10.2 175.9-10.3 2-.7 3.3-2.7 3.2-4.7v-20.2c0-2.7-2.2-4.9-4.9-4.9-.5 0-1.1.1-1.5.3-48.9 12.8-134 8.7-134.7 8.7-.2 0-.4 0-.7 0-115.9.4-178.8-35.3-179.2-35.6-2.1-1.2-4.7-.6-6.2 1.2l-10.7 11.2c-1.9 2-1.8 5 .2 6.9.3.3.7.6 1.1.8l17.3 10.1-64 3.8c-2.6.2-4.6 2.3-4.6 4.9v17.3c0 2.7 2.2 4.9 4.9 4.9h.6c42-2.9 75.7-3.7 102.1-3.4 37.2.4 60.1 3.1 71.5 4.8v38.5c0 2.7 2.2 4.9 4.9 4.9 6.9-.2 13.7-.2 19.9-.2z" fill="#8f6e4e"/><g><path d="m76.1 244.9c.6-.9 1.3-2 1.9-3 .7-1.1 1.2-2.2 1.7-3.2.1-.1.1-.3.2-.5 2.8-5.6 4.2-11.2 4.2-16.3 0-5.5-1.7-10.4-5.3-14s-8.5-5.3-14-5.3c-5.2 0-10.9 1.6-16.7 4.4-1.1.6-2.2 1.1-3.2 1.7-1.1.6-2.1 1.3-3 1.9-.8.5-16.8 16.5-17.4 17.4-4.5 6.6-7.2 13.6-7.9 19.8-.8 6.8.8 12.8 5.1 17.1s10.3 5.8 17.1 5.1c6.2-.7 13.2-3.4 19.8-7.9.1.1 17.3-17 17.5-17.2z" fill="#ffd342"/><g fill="#575757"><path d="m76.7 244c.4-.7.9-1.4 1.3-2.2.7-1.1 1.2-2.2 1.7-3.2.1-.1.1-.3.2-.5.5-1.1 1-2.2 1.5-3.3l-29.9-29.3c-1.1.4-2.2.9-3.2 1.5-1.1.6-2.2 1.1-3.2 1.7-.9.5-1.8 1.1-2.6 1.6z"/><path d="m22.6 231.5c-1.8 3.2-3.3 6.4-4.3 9.5l28.1 27.5c3.1-1 6.3-2.5 9.5-4.4z"/></g><g fill="#ededed"><path d="m49.8 241.3c-12.7-1-28.9-6.4-37.6-15.8-2-2.2-3-5-3-7.8s1.2-5.6 3.3-7.7l11.3-11.3c2.1-2.1 4.9-3.2 7.7-3.3s5.6.9 7.8 2.9c13.7 12.7 15.7 36.2 15.9 37.7.2 3-2.4 5.6-5.4 5.3z"/><path d="m45.6 237c-.1-.6 0-1.1.1-1.7v-.1-.1-.1-.1-.1c.8-2 2.8-3.3 5-3.1 12.7 1 28.9 6.4 37.7 15.8 2.1 2.2 3 5 2.9 7.8s-1.2 5.6-3.3 7.7l-11.3 11.3c-2.1 2.1-4.9 3.2-7.7 3.3s-5.6-.9-7.8-3c-9.2-8.7-14.6-24.9-15.6-37.6z"/></g></g><path d="m158.5 314.2c-2.7 0-4.9 2.2-4.9 4.9 0 12.6 5.1 24.1 13.4 32.4s19.8 13.4 32.4 13.4h53.7c12.6 0 24.1-5.1 32.4-13.4s13.4-19.8 13.4-32.4c0-2.7-2.2-4.9-4.9-4.9-45.1 0-90.3 0-135.5 0z" fill="#ffae06"/><path d="m153.6 155.3c0 2.7 2.2 4.9 4.9 4.9h135.6c2.7 0 4.9-2.2 4.9-4.9 0-12.6-5.1-24.1-13.4-32.4s-19.7-13.4-32.4-13.4h-53.7c-12.6 0-24.1 5.1-32.4 13.4s-13.5 19.8-13.5 32.4z" fill="#ffc107"/><path d="m153.9 201.1h144.9c7 0 13.3-2.8 17.9-7.4s7.4-10.9 7.4-17.9-2.8-13.3-7.4-17.9-10.9-7.4-17.9-7.4h-144.9c-7 0-13.3 2.8-17.9 7.4s-7.4 10.9-7.4 17.9 2.8 13.3 7.4 17.9 10.9 7.4 17.9 7.4z" fill="#ffae06"/><path d="m153.9 273.3c-7 0-13.3 2.8-17.9 7.4s-7.4 10.9-7.4 17.9 2.8 13.3 7.4 17.9 10.9 7.4 17.9 7.4h144.9c7 0 13.3-2.8 17.9-7.4s7.4-10.9 7.4-17.9-2.8-13.3-7.4-17.9-10.9-7.4-17.9-7.4c-48.3 0-96.6 0-144.9 0z" fill="#ffc107"/><path d="m141.1 232.3c-7.8 0-15 2.7-20.2 7.2-5.4 4.6-8.8 11-8.8 18.2 0 7.1 3.4 13.6 8.8 18.2 5.2 4.4 12.3 7.2 20.2 7.2h170.4c7.8 0 15-2.7 20.2-7.2 5.4-4.6 8.8-11 8.8-18.2 0-7.1-3.4-13.6-8.8-18.2-5.2-4.4-12.3-7.2-20.2-7.2-56.7 0-113.6 0-170.4 0z" fill="#ffae06"/><path d="m321.8 242.1h-191c-6.6 0-12.6-2.7-16.9-7s-7-10.3-7-16.9v-2.9c0-6.6 2.7-12.6 7-16.9s10.3-7 16.9-7h191c6.6 0 12.6 2.7 16.9 7s7 10.3 7 16.9v2.9c0 6.6-2.7 12.6-7 16.9s-10.3 7-16.9 7z" fill="#ffc107"/><g><path d="m391.8 248.2c.9.6 2 1.3 3 1.9 1.1.7 2.2 1.2 3.2 1.7.1.1.3.1.5.2 5.6 2.8 11.2 4.2 16.3 4.2 5.5 0 10.4-1.7 14-5.3s5.3-8.5 5.3-14c0-5.2-1.6-10.9-4.5-16.7-.5-1.1-1.1-2.2-1.7-3.2-.6-1.1-1.3-2.1-1.9-3-.5-.8-16.5-16.8-17.4-17.4-6.6-4.5-13.6-7.2-19.8-7.9-6.8-.8-12.8.9-17.1 5.1-4.2 4.2-5.8 10.3-5.1 17.1.7 6.2 3.4 13.2 7.9 19.8-.1.1 17 17.3 17.3 17.5z" fill="#ffd342"/><g fill="#575757"><path d="m392.7 248.8c.7.4 1.4.9 2.2 1.3 1.1.7 2.2 1.2 3.2 1.7.1.1.3.1.5.2 1.1.5 2.2 1 3.3 1.5l29.3-29.9c-.4-1.1-.9-2.1-1.5-3.2-.5-1.1-1.1-2.2-1.7-3.2-.5-.9-1.1-1.8-1.6-2.6z"/><path d="m405.2 194.6c-3.2-1.8-6.4-3.3-9.5-4.3l-27.5 28.1c1 3.1 2.5 6.3 4.4 9.5z"/></g><g fill="#ededed"><path d="m395.4 221.9c1-12.7 6.4-28.9 15.8-37.6 2.2-2.1 5-3 7.8-2.9s5.6 1.2 7.7 3.3l11.3 11.3c2.1 2.1 3.2 4.9 3.3 7.7s-.9 5.6-3 7.8c-12.6 13.6-36.2 15.7-37.6 15.8-3.1.2-5.6-2.4-5.3-5.4z"/><path d="m399.6 217.6c.6-.1 1.1 0 1.7.1h.1.1.1.1.1c2 .8 3.3 2.9 3.1 5-1 12.7-6.4 28.9-15.8 37.7-2.2 2-5 3-7.8 3-2.8-.1-5.6-1.2-7.7-3.3l-11.3-11.1c-2.1-2.1-3.2-4.9-3.3-7.7s.9-5.6 3-7.8c8.7-9.5 24.9-14.8 37.6-15.9z"/></g></g><g><path d="m326.4 423.1c.9.6 2 1.3 3 1.9 1.1.7 2.2 1.2 3.2 1.7.1.1.3.1.5.2 5.6 2.8 11.2 4.2 16.3 4.2 5.5 0 10.4-1.7 14-5.3s5.3-8.5 5.3-14c0-5.2-1.6-10.9-4.5-16.7-.5-1.1-1.1-2.2-1.7-3.2-.6-1.1-1.3-2.1-1.9-3-.5-.8-16.5-16.8-17.4-17.4-6.6-4.5-13.6-7.2-19.8-7.9-6.8-.8-12.8.9-17.1 5.1s-5.8 10.3-5.1 17.1c.7 6.2 3.4 13.2 7.9 19.8-.1.1 17.1 17.3 17.3 17.5z" fill="#ffd342"/><g fill="#575757"><path d="m327.3 423.7c.7.4 1.4.9 2.2 1.3 1.1.7 2.2 1.2 3.2 1.7.1.1.3.1.5.2l3.3 1.5 29.3-29.9c-.4-1.1-.9-2.1-1.5-3.2-.5-1.1-1.1-2.2-1.7-3.2-.5-.9-1.1-1.8-1.6-2.6z"/><path d="m339.8 369.5c-3.2-1.8-6.4-3.3-9.5-4.3l-27.5 28.1c1 3.1 2.5 6.3 4.4 9.5z"/></g><g fill="#ffe0b2"><path d="m330 396.8c1-12.7 6.4-28.9 15.8-37.6 2.2-2 5-3 7.8-3 2.8.1 5.6 1.2 7.7 3.3l11.3 11.3c2.1 2.1 3.2 4.9 3.3 7.7s-.9 5.6-3 7.8c-12.6 13.6-36.2 15.7-37.6 15.8-3 .3-5.6-2.3-5.3-5.3z"/><path d="m334.2 392.6c.6 0 1.1 0 1.7.1h.1.1.1.1.1c2 .8 3.3 2.9 3.1 5-1 12.6-6.4 28.9-15.8 37.7-2.2 2-5 3-7.8 3-2.8-.1-5.6-1.2-7.7-3.3l-11.2-11.2c-2.1-2.1-3.2-4.9-3.3-7.7s.9-5.6 3-7.8c8.7-9.5 24.8-14.8 37.5-15.8z"/></g></g></g></svg>