<svg id="Capa_1" enable-background="new 0 0 512 512" height="512" viewBox="0 0 512 512" width="512" xmlns="http://www.w3.org/2000/svg"><g><path d="m193.194 240.27h30.692c4.143 0 7.5-3.357 7.5-7.5s-3.357-7.5-7.5-7.5h-30.692c-4.143 0-7.5 3.357-7.5 7.5s3.358 7.5 7.5 7.5z"/><path d="m193.194 296.358h30.692c4.143 0 7.5-3.357 7.5-7.5s-3.357-7.5-7.5-7.5h-30.692c-4.143 0-7.5 3.357-7.5 7.5s3.358 7.5 7.5 7.5z"/><path d="m193.194 352.446h30.692c4.143 0 7.5-3.357 7.5-7.5s-3.357-7.5-7.5-7.5h-30.692c-4.143 0-7.5 3.357-7.5 7.5s3.358 7.5 7.5 7.5z"/><path d="m193.194 408.535h30.692c4.143 0 7.5-3.357 7.5-7.5s-3.357-7.5-7.5-7.5h-30.692c-4.143 0-7.5 3.357-7.5 7.5s3.358 7.5 7.5 7.5z"/><path d="m193.194 464.623h30.692c4.143 0 7.5-3.357 7.5-7.5 0-4.142-3.357-7.5-7.5-7.5h-30.692c-4.143 0-7.5 3.358-7.5 7.5 0 4.143 3.358 7.5 7.5 7.5z"/><path d="m345.373 191.424c6.174-2.706 10.503-8.869 10.503-16.03v-34.586c0-9.649-7.851-17.5-17.5-17.5h-7.182v-11.132c0-17.034-13.858-30.893-30.893-30.893h-5.761c-.964 0-1.574-.515-1.851-.82-.278-.307-.73-.965-.637-1.924l3.438-34.979c1.093-11.123-2.587-22.251-10.093-30.531-7.506-8.28-18.221-13.029-29.397-13.029s-21.891 4.749-29.398 13.029-11.184 19.407-10.092 30.53l3.437 34.979c.094.96-.358 1.618-.637 1.925-.277.306-.888.82-1.852.82h-5.761c-17.034 0-30.893 13.858-30.893 30.893v11.132h-7.182c-9.649 0-17.5 7.851-17.5 17.5v34.586c0 7.161 4.329 13.324 10.503 16.03-12.525 10.556-20.503 26.345-20.503 43.97v40.606c0 4.143 3.357 7.5 7.5 7.5s7.5-3.357 7.5-7.5v-40.606c0-23.435 19.066-42.5 42.5-42.5h104.752c23.434 0 42.5 19.065 42.5 42.5v136.606c0 4.143 3.357 7.5 7.5 7.5s7.5-3.357 7.5-7.5v-136.606c.002-17.625-7.976-33.414-20.501-43.97zm-171.749-13.53c-1.379 0-2.5-1.121-2.5-2.5v-34.586c0-1.379 1.121-2.5 2.5-2.5h85.827c4.143 0 7.5-3.357 7.5-7.5s-3.357-7.5-7.5-7.5h-63.646v-11.132c0-8.764 7.129-15.893 15.893-15.893h5.761c4.929 0 9.654-2.094 12.964-5.745 3.312-3.651 4.934-8.56 4.452-13.466l-3.436-34.98c-.69-7.02 1.54-13.764 6.277-18.989s11.23-8.103 18.284-8.103c7.053 0 13.547 2.878 18.284 8.104 4.738 5.226 6.968 11.97 6.278 18.989l-3.438 34.98c-.481 4.905 1.141 9.814 4.452 13.465 3.31 3.651 8.035 5.745 12.964 5.745h5.761c8.764 0 15.893 7.129 15.893 15.893v11.132h-24.743c-4.143 0-7.5 3.357-7.5 7.5s3.357 7.5 7.5 7.5h46.925c1.379 0 2.5 1.121 2.5 2.5v34.586c0 1.379-1.121 2.5-2.5 2.5z"/><path d="m358.376 398.5c-4.143 0-7.5 3.357-7.5 7.5v48.5c0 23.435-19.066 42.5-42.5 42.5h-104.752c-23.434 0-42.5-19.065-42.5-42.5v-145.5c0-4.143-3.357-7.5-7.5-7.5s-7.5 3.357-7.5 7.5v145.5c0 31.706 25.794 57.5 57.5 57.5h104.752c31.706 0 57.5-25.794 57.5-57.5v-48.5c0-4.143-3.357-7.5-7.5-7.5z"/></g></svg>