<svg xmlns="http://www.w3.org/2000/svg" version="1.1" xmlns:xlink="http://www.w3.org/1999/xlink" width="512" height="512" x="0" y="0" viewBox="0 0 512 512" style="enable-background:new 0 0 512 512" xml:space="preserve" class=""><g><path fill="#ae6db9" d="M313.051 375.858H122.804c-26.103 0-47.264 21.161-47.264 47.265V512h284.775v-88.877c0-26.104-21.161-47.265-47.264-47.265z" opacity="1" data-original="#0ab69f" class=""></path><path fill="#4f0d7b" d="M315.971 375.859H281.02c26.103 0 47.264 21.161 47.264 47.264V512h34.951v-88.877c0-26.104-21.161-47.264-47.264-47.264z" opacity="1" data-original="#01998d" class=""></path><path fill="#ffb09e" d="M219.388 424.155c-26.653 0-48.259-21.606-48.259-48.259V259.759h96.518v116.137c0 26.652-21.607 48.259-48.259 48.259z" opacity="1" data-original="#ffb09e" class=""></path><path fill="#ffa78f" d="M171.129 366.673a115.591 115.591 0 0 0 33.541 9.343l-.046.006c22.631 2.768 44.17-.935 63.023-9.493v-106.77h-96.518z" opacity="1" data-original="#ffa78f" class=""></path><path fill="#935b44" d="m335.993 133.907-14.343 8.891H138.487l-29.962-10.179-25.279 10.179v94.623h269.24v-94.623z" opacity="1" data-original="#935b44"></path><path fill="#ffb09e" d="M159.045 259.104h-56.762c-21.823 0-39.514-17.691-39.514-39.514v-.243c0-21.823 17.691-39.514 39.514-39.514h56.762z" opacity="1" data-original="#ffb09e" class=""></path><path fill="#ffa78f" d="M279.373 179.833h56.762c21.823 0 39.514 17.691 39.514 39.514v.243c0 21.823-17.691 39.514-39.514 39.514h-56.762z" opacity="1" data-original="#ffa78f" class=""></path><path fill="#ffcebf" d="M217.765 82.464c-63.779.572-115.308 52.444-115.308 116.359v41.25c0 63.915 51.528 115.786 115.308 116.359 63.779-.572 115.308-52.444 115.308-116.359v-41.25c0-63.915-51.528-115.786-115.308-116.359z" opacity="1" data-original="#ffcebf" class=""></path><path fill="#5a5a5a" d="M162.357 247.113a7.706 7.706 0 0 1-7.706-7.706v-21.448a7.706 7.706 0 1 1 15.412 0v21.448a7.706 7.706 0 0 1-7.706 7.706zM276.061 247.113a7.706 7.706 0 0 1-7.706-7.706v-21.448a7.706 7.706 0 1 1 15.412 0v21.448a7.706 7.706 0 0 1-7.706 7.706z" opacity="1" data-original="#5a5a5a"></path><path fill="#ffa799" d="M219.209 308.257c-17.889 0-32.442-14.553-32.442-32.442a7.706 7.706 0 1 1 15.412 0c0 9.39 7.639 17.03 17.03 17.03 9.39 0 17.03-7.639 17.03-17.03a7.706 7.706 0 1 1 15.412 0c0 17.888-14.553 32.442-32.442 32.442z" opacity="1" data-original="#ffa799" class=""></path><path fill="#fe8f83" d="M154.651 260.402h-17.136a7.706 7.706 0 1 0 0 15.412h17.136a7.706 7.706 0 1 0 0-15.412z" opacity="1" data-original="#fe8f83" class=""></path><path fill="#ac5e2e" d="m233.279 190.109-3.146-5.363a50.076 50.076 0 0 1-4.047-41.949l-1.445-13.446H117.779v13.446s37.905 57.297 71.812 47.311l-3.146-5.363a50.039 50.039 0 0 1-6.492-19.243c14.135 14.719 34.355 30.195 53.326 24.607z" opacity="1" data-original="#ac5e2e" class=""></path><path fill="#9e5528" d="M230.133 184.747a50.076 50.076 0 0 1-4.047-41.949l-1.445-13.446h-29.125l1.445 13.446a50.08 50.08 0 0 0 2.723 39.544c10.614 6.973 22.325 11.087 33.594 7.767z" opacity="1" data-original="#9e5528"></path><path fill="#ffb09e" d="M219.621 82.451h-.792c-4.81 0-9.549.298-14.206.864 57.569 7.008 102.166 56.047 102.166 115.508v41.25c0 59.461-44.597 108.5-102.166 115.508 4.657.567 9.396.865 14.206.865h.792c64.27 0 116.372-52.102 116.372-116.372v-41.25c0-64.271-52.101-116.373-116.372-116.373z" opacity="1" data-original="#ffb09e" class=""></path><path fill="#aa6a51" d="M84.742 115.905h53.869v-7.651c0-13.619-11.04-24.66-24.66-24.66H93.754c-4.769 11.394-7.216 21.253-9.012 32.311z" opacity="1" data-original="#aa6a51" class=""></path><path fill="#ffb09e" d="m224.518 201.791-3.146-5.363a50.076 50.076 0 0 1-4.047-41.949l-1.445-13.446H117.8a115.948 115.948 0 0 0-7.397 15.451c7.102 10.047 40.337 54.168 70.427 45.306l-3.146-5.363a50.039 50.039 0 0 1-6.492-19.243c14.135 14.719 34.355 30.194 53.326 24.607z" opacity="1" data-original="#ffb09e" class=""></path><path fill="#aa6a51" d="m233.279 190.109-3.146-5.363a50.076 50.076 0 0 1-4.047-41.949l-1.445-13.446H117.779v13.446s37.905 57.297 71.812 47.311l-3.146-5.363a50.039 50.039 0 0 1-6.492-19.243c14.135 14.719 34.355 30.195 53.326 24.607z" opacity="1" data-original="#aa6a51" class=""></path><path fill="#0268b4" d="M438.059 142.798H304.512v-26.893h128.999c8.682 0 15.72 7.038 15.72 15.72 0 6.171-5.002 11.173-11.172 11.173z" opacity="1" data-original="#0268b4" class=""></path><path fill="#30dbd1" d="M84.742 115.905a137.044 137.044 0 0 0-1.496 20.214v6.679h55.365v-26.893z" opacity="1" data-original="#b2caec" class=""></path><path fill="#935b44" d="M230.133 184.747a50.076 50.076 0 0 1-4.047-41.949l-1.445-13.446h-26.283l1.445 13.446a50.076 50.076 0 0 0 4.047 41.949l.12.205c9.433 5.318 19.536 8.036 29.308 5.158z" opacity="1" data-original="#935b44"></path><path fill="#fe8f83" d="M300.903 260.402h-17.136a7.706 7.706 0 1 0 0 15.412h17.136a7.706 7.706 0 1 0 0-15.412z" opacity="1" data-original="#fe8f83" class=""></path><path fill="#52db30" d="M216.697.038C161.233 1.067 113.874 35.231 93.63 83.595H113.827c13.619 0 24.66 11.04 24.66 24.66v34.543h211.078v-6.679c0-74.092-59.194-134.34-132.868-136.081z" opacity="1" data-original="#3c87d0" class=""></path><path fill="#0078c8" d="M218.098 0c-5.317.045-10.56.397-15.715 1.035C269.607 9.347 321.65 66.647 321.65 136.119v6.679h30.836v-6.679C352.486 61.517 292.477.941 218.098 0z" opacity="1" data-original="#0078c8" class=""></path></g></svg>