<?xml version="1.0" encoding="UTF-8" standalone="no"?>
<!-- Created with Inkscape (http://www.inkscape.org/) -->

<svg
   version="1.1"
   id="svg207"
   xml:space="preserve"
   width="682.66669"
   height="682.66669"
   viewBox="0 0 682.66669 682.66669"
   xmlns="http://www.w3.org/2000/svg"
   xmlns:svg="http://www.w3.org/2000/svg"><defs
     id="defs211"><clipPath
       clipPathUnits="userSpaceOnUse"
       id="clipPath221"><path
         d="M 0,512 H 512 V 0 H 0 Z"
         id="path219" /></clipPath></defs><g
     id="g213"
     transform="matrix(1.3333333,0,0,-1.3333333,0,682.66667)"><g
       id="g215"><g
         id="g217"
         clip-path="url(#clipPath221)"><g
           id="g223"
           transform="translate(242.9473,236.7559)"><path
             d="m 0,0 c 0,-13.26 -10.75,-24.01 -24.01,-24.01 -13.261,0 -24.01,10.75 -24.01,24.01"
             style="fill:none;stroke:#000000;stroke-width:15;stroke-linecap:round;stroke-linejoin:round;stroke-miterlimit:10;stroke-dasharray:none;stroke-opacity:1"
             id="path225" /></g><g
           id="g227"
           transform="translate(163.7534,292.9146)"><path
             d="M 0,0 V -20.819"
             style="fill:none;stroke:#000000;stroke-width:15;stroke-linecap:round;stroke-linejoin:round;stroke-miterlimit:10;stroke-dasharray:none;stroke-opacity:1"
             id="path229" /></g><g
           id="g231"
           transform="translate(274.1211,292.9146)"><path
             d="M 0,0 V -20.819"
             style="fill:none;stroke:#000000;stroke-width:15;stroke-linecap:round;stroke-linejoin:round;stroke-miterlimit:10;stroke-dasharray:none;stroke-opacity:1"
             id="path233" /></g><g
           id="g235"
           transform="translate(351.2578,365.8701)"><path
             d="m 0,0 h -264.294 v 6.483 c 0,72.983 59.164,132.147 132.147,132.147 v 0 C -59.164,138.63 0,79.466 0,6.483 Z"
             style="fill:none;stroke:#000000;stroke-width:15;stroke-linecap:round;stroke-linejoin:round;stroke-miterlimit:10;stroke-dasharray:545, 35, 400, 0;stroke-dashoffset:0;stroke-opacity:1"
             id="path237" /></g><g
           id="g239"
           transform="translate(116.7676,423.3364)"><path
             d="m 0,0 h -19.605 c -6.567,-15.689 -10.199,-32.912 -10.199,-50.983 v -6.483 h 53.74 v 33.529 C 23.936,-10.717 13.22,0 0,0 Z"
             style="fill:none;stroke:#000000;stroke-width:15;stroke-linecap:round;stroke-linejoin:round;stroke-miterlimit:10;stroke-dasharray:none;stroke-opacity:1"
             id="path241" /></g><g
           id="g243"
           transform="translate(88.415,391.9736)"><path
             d="m 0,0 c -0.954,-6.402 -1.452,-12.953 -1.452,-19.621 v -6.483 H 52.289 V 0 Z"
             style="fill:none;stroke:#000000;stroke-width:15;stroke-linecap:round;stroke-linejoin:round;stroke-miterlimit:10;stroke-dasharray:none;stroke-opacity:1"
             id="path245" /></g><g
           id="g247"
           transform="translate(312.8604,139.6475)"><path
             d="m 0,0 h -46.906 v -0.036 c 0,-25.871 -20.973,-46.843 -46.844,-46.843 -25.87,0 -46.843,20.972 -46.843,46.843 V 0 H -187.5 c -25.337,0 -45.877,-20.54 -45.877,-45.878 v -86.269 H 45.878 v 86.269 C 45.878,-20.54 25.338,0 0,0 Z"
             style="fill:none;stroke:#000000;stroke-width:15;stroke-linecap:round;stroke-linejoin:round;stroke-miterlimit:10;stroke-dasharray:340, 35, 400, 0;stroke-dashoffset:0;stroke-opacity:1"
             id="path249" /></g><g
           id="g251"
           transform="translate(429.25,391.9736)"><path
             d="m 0,0 h -79.444 c 0.953,-6.402 1.452,-12.953 1.452,-19.621 v -6.483 H 4.414 c 5.989,0 10.845,4.856 10.845,10.845 C 15.259,-6.832 8.428,0 0,0 Z"
             style="fill:none;stroke:#000000;stroke-width:15;stroke-linecap:round;stroke-linejoin:round;stroke-miterlimit:10;stroke-dasharray:none;stroke-opacity:1"
             id="path253" /></g><g
           id="g255"
           transform="translate(120.4829,365.8701)"><path
             d="m 0,0 c 0,0 36.793,-55.616 69.705,-45.923 -3.554,6.057 -7.97,12.583 -9.355,23.883 13.72,-14.286 33.347,-29.307 51.761,-23.883 l -3.053,5.205 C 101.823,-28.384 100.386,-13.49 105.13,0 v 0 z"
             style="fill:none;stroke:#000000;stroke-width:15;stroke-linecap:round;stroke-linejoin:round;stroke-miterlimit:10;stroke-dasharray:none;stroke-opacity:1"
             id="path257" /></g><g
           id="g259"
           transform="translate(105.6113,271.4492)"><path
             d="m 0,0 v 40.04 c 0,6.277 0.521,12.433 1.505,18.432 H -0.17 c -21.183,0 -38.354,-17.172 -38.354,-38.354 v -0.236 c 0,-21.183 17.171,-38.355 38.354,-38.355 H 1.512 C 0.522,-12.461 0,-6.292 0,0 Z"
             style="fill:none;stroke:#000000;stroke-width:15;stroke-linecap:round;stroke-linejoin:round;stroke-miterlimit:10;stroke-dasharray:none;stroke-opacity:1"
             id="path261" /></g><g
           id="g263"
           transform="translate(332.4336,329.9214)"><path
             d="m 0,0 h -1.644 c 0.985,-5.999 1.505,-12.155 1.505,-18.433 v -40.039 c 0,-6.292 -0.522,-12.461 -1.511,-18.473 H 0 c 21.182,0 38.354,17.172 38.354,38.355 v 0.236 C 38.354,-17.172 21.182,0 0,0 Z"
             style="fill:none;stroke:#000000;stroke-width:15;stroke-linecap:round;stroke-linejoin:round;stroke-miterlimit:10;stroke-dasharray:none;stroke-opacity:1"
             id="path265" /></g><g
           id="g267"
           transform="translate(119.5459,365.8701)"><path
             d="m 0,0 c -8.879,-16.133 -13.935,-34.666 -13.935,-54.381 v -40.04 c 0,-62.385 50.573,-112.958 112.958,-112.958 h 0.769 c 62.385,0 112.957,50.573 112.957,112.958 v 40.04 c 0,19.715 -5.056,38.248 -13.935,54.381 z"
             style="fill:none;stroke:#000000;stroke-width:15;stroke-linecap:round;stroke-linejoin:round;stroke-miterlimit:10;stroke-dasharray:none;stroke-opacity:1"
             id="path269" /></g><g
           id="g271"
           transform="translate(219.3374,158.4912)"><path
             d="M 0,0 H -0.769 C -17.268,0 -32.94,3.54 -47.07,9.897 V -18.88 c 0,-25.871 20.973,-46.843 46.843,-46.843 25.871,0 46.844,20.972 46.844,46.843 V 10.039 C 32.405,3.592 16.622,0 0,0 Z"
             style="fill:none;stroke:#000000;stroke-width:15;stroke-linecap:round;stroke-linejoin:round;stroke-miterlimit:10;stroke-dasharray:none;stroke-opacity:1"
             id="path273" /></g><g
           id="g275"
           transform="translate(318.3604,365.8701)"><path
             d="m 0,0 c 6.052,-10.996 10.323,-23.108 12.433,-35.949 h 1.64 c 6.843,0 13.262,-1.801 18.824,-4.941 l 0,40.89 z"
             style="fill:none;stroke:#000000;stroke-width:15;stroke-linecap:round;stroke-linejoin:round;stroke-miterlimit:10;stroke-dasharray:none;stroke-opacity:1"
             id="path277" /></g><g
           id="g279"
           transform="translate(119.5459,365.8701)"><path
             d="m 0,0 h -32.583 v -40.69 c 5.482,3.019 11.778,4.741 18.479,4.741 h 1.672 C -10.323,-23.108 -6.052,-10.996 0,0 Z"
             style="fill:none;stroke:#000000;stroke-width:15;stroke-linecap:round;stroke-linejoin:round;stroke-miterlimit:10;stroke-dasharray:none;stroke-opacity:1"
             id="path281" /></g></g></g></g></svg>
