<svg id="Layer_1" enable-background="new 0 0 64 64" height="64" viewBox="0 0 64 64" width="64" xmlns="http://www.w3.org/2000/svg"><g id="Base_10_"><g><path d="m0 0h32v32h-32z" fill="#ffc600"/></g></g><g id="Round_Shape_15_"><g><circle cx="16" cy="20" fill="#e6a900" r="10"/></g></g><g id="Round_Shape_13_"><g><circle cx="16" cy="16" fill="#ffe557" r="10"/></g></g><g id="Base_11_"><g><path d="m32 0h32v32h-32z" fill="#f54b4f"/></g></g><g id="Round_Shape_11_"><g><circle cx="48" cy="20" fill="#ac2531" r="10"/></g></g><g id="Round_Shape_9_"><g><circle cx="48" cy="16" fill="#ff6f6a" r="10"/></g></g><g id="Base_12_"><g><path d="m32 32h32v32h-32z" fill="#87df31"/></g></g><g id="Round_Shape_5_"><g><circle cx="48" cy="52" fill="#5f9f20" r="10"/></g></g><g id="Round_Shape_6_"><g><circle cx="48" cy="48" fill="#adf369" r="10"/></g></g><g id="Base_13_"><g><path d="m0 32h32v32h-32z" fill="#4bbbf5"/></g></g><g id="Round_Shape_7_"><g><circle cx="16" cy="52" fill="#288bbe" r="10"/></g></g><g id="Round_Shape_8_"><g><circle cx="16" cy="48" fill="#84d5fe" r="10"/></g></g><g id="Lego_Logo_7_"><g><path d="m20 14h-8c-1.104 0-2 .896-2 2s.896 2 2 2h8c1.104 0 2-.896 2-2s-.896-2-2-2z" fill="#e6a900"/></g></g><g id="Lego_Logo_5_"><g><path d="m52 14h-8c-1.104 0-2 .896-2 2s.896 2 2 2h8c1.104 0 2-.896 2-2s-.896-2-2-2z" fill="#af2732"/></g></g><g id="Lego_Logo_3_"><g><path d="m52 46h-8c-1.104 0-2 .896-2 2s.896 2 2 2h8c1.104 0 2-.896 2-2s-.896-2-2-2z" fill="#5f9f20"/></g></g><g id="Lego_Logo_4_"><g><path d="m20 46h-8c-1.104 0-2 .896-2 2s.896 2 2 2h8c1.104 0 2-.896 2-2s-.896-2-2-2z" fill="#2a8dc0"/></g></g><g/><g/><g/><g/><g/><g/><g/><g/><g/><g/><g/><g/><g/><g/><g/></svg>