<svg id="Capa_1" enable-background="new 0 0 512 512" height="512" viewBox="0 0 512 512" width="512" xmlns="http://www.w3.org/2000/svg"><path d="m492.446 107.268v-16.755c0-39.723-32.317-72.041-72.041-72.041h-100.208c-17.478 0-31.697 14.219-31.697 31.697v9.971h-35.565c-17.543 0-31.815 14.272-31.815 31.815v6.197h-.569c-5.772 0-11.151 3.106-14.037 8.105l-6.299 10.911c-2.887 4.999-2.887 11.21 0 16.21l6.299 10.911c2.886 5 8.265 8.105 14.038 8.105h12.6c5.772 0 11.151-3.105 14.037-8.104l6.3-10.911c2.887-5 2.887-11.211 0-16.209l-6.299-10.911c-2.383-4.128-6.468-6.96-11.069-7.823v-6.479c0-9.272 7.543-16.815 16.815-16.815h35.564v23.925c-11.586 3.085-20.149 13.664-20.149 26.208 0 14.954 12.167 27.121 27.121 27.121 14.955 0 27.121-12.167 27.121-27.121 0-12.161-8.045-22.477-19.093-25.908v-24.227h35.565c9.272 0 16.815 7.543 16.815 16.815v6.479c-4.601.863-8.685 3.695-11.068 7.823l-6.299 10.911c-2.887 4.999-2.887 11.21 0 16.21l6.299 10.911c2.886 5 8.265 8.105 14.038 8.105h12.6c5.772 0 11.151-3.105 14.038-8.104l6.3-10.912c2.886-4.999 2.886-11.21 0-16.208l-6.3-10.912c-2.887-4.999-8.266-8.104-14.038-8.104h-.569v-6.197c0-17.543-14.272-31.815-31.815-31.815h-35.566v-9.972c0-9.207 7.49-16.697 16.697-16.697h100.209c31.452 0 57.041 25.588 57.041 57.041v16.649c-11.895.107-21.54 9.812-21.54 21.731v49.851h-295.556c-4.142 0-7.5 3.358-7.5 7.5s3.358 7.5 7.5 7.5h295.556v21.483h-399.814v-21.483h59.258c4.142 0 7.5-3.358 7.5-7.5s-3.358-7.5-7.5-7.5h-59.258v-49.851c0-11.985-9.751-21.736-21.736-21.736h-12.62c-11.986 0-21.737 9.751-21.737 21.736v342.896c0 11.985 9.751 21.736 21.736 21.736h12.62c11.985 0 21.736-9.751 21.736-21.736v-30.813h272.288c4.142 0 7.5-3.358 7.5-7.5s-3.358-7.5-7.5-7.5h-272.287v-38.917h399.814v38.917h-92.527c-4.142 0-7.5 3.358-7.5 7.5s3.358 7.5 7.5 7.5h92.526v30.813c0 11.985 9.751 21.736 21.736 21.736h12.62c11.986 0 21.737-9.751 21.737-21.736v-342.896c.001-11.248-8.588-20.528-19.553-21.626zm-251.949 18.61-6.3 10.912c-.215.373-.616.604-1.046.604h-12.6c-.431 0-.832-.231-1.047-.604l-6.3-10.912c-.215-.373-.215-.835 0-1.208l6.3-10.912c.215-.373.616-.604 1.046-.604h12.6c.43 0 .832.231 1.047.605l6.3 10.913c.215.37.215.833 0 1.206zm67.096-.604c0 6.683-5.438 12.121-12.121 12.121s-12.121-5.438-12.121-12.121c0-6.684 5.438-12.121 12.121-12.121s12.121 5.437 12.121 12.121zm64.904-11.516 6.3 10.912c.215.373.215.836 0 1.209l-6.3 10.911c-.215.373-.617.605-1.047.605h-12.6c-.431 0-.832-.231-1.047-.604l-6.3-10.912c-.215-.373-.215-.835 0-1.208l6.3-10.912c.215-.373.616-.604 1.047-.604h12.6c.43-.002.831.23 1.047.603zm52.475 166.951h30.935v36.79h-30.935zm30.935-15h-30.935v-35.48h30.935zm-85.625 51.79h-33.733l1.103-1.86c7.625-12.855 19.056-22.921 32.63-28.89zm-39.402 15h39.401v39.562h-39.401zm39.402-61.857c-15.643 5.518-29.294 15.385-39.401 28.376v-68.79h39.401zm-133.494 61.857h39.401v39.562h-39.401zm39.401-15h-39.401v-87.27h39.401zm-133.493 15h39.401v39.562h-39.401zm39.402-15h-39.401v-87.27h39.401zm-94.093-87.27v87.27h-31.912v-87.27zm-46.912 241.562c0 3.714-3.022 6.736-6.736 6.736h-12.62c-3.714 0-6.736-3.022-6.736-6.736v-342.897c0-3.714 3.022-6.736 6.736-6.736h12.62c3.714 0 6.736 3.022 6.736 6.736zm15-139.292h31.913v39.562h-31.913zm46.912 39.562v-141.832h24.691v141.832zm94.093 0v-141.832h24.69v141.832zm94.091 0v-141.832h24.691v141.832zm94.093 0v-141.832h24.69v141.832zm39.69 0v-39.562h30.935v39.562zm72.028 99.73c0 3.714-3.022 6.736-6.737 6.736h-12.62c-3.714 0-6.736-3.022-6.736-6.736v-342.897c0-3.714 3.022-6.736 6.736-6.736h12.62c3.715 0 6.737 3.022 6.737 6.736z"/></svg>