<svg id="Outline" height="512" viewBox="0 0 64 64" width="512" xmlns="http://www.w3.org/2000/svg"><g><path d="m27 62h-22c-1.654 0-3-1.346-3-3v-22c0-1.654 1.346-3 3-3h22c1.654 0 3 1.346 3 3v22c0 1.654-1.346 3-3 3zm-22-26c-.551 0-1 .449-1 1v22c0 .551.449 1 1 1h22c.551 0 1-.449 1-1v-22c0-.551-.449-1-1-1z"/><path d="m19.464 55h-6.928c-.357 0-.688-.19-.866-.5l-3.464-6c-.178-.31-.178-.69 0-1l3.464-6c.179-.31.509-.5.866-.5h6.928c.357 0 .688.19.866.5l3.464 6c.178.31.178.69 0 1l-3.464 6c-.179.31-.509.5-.866.5zm-6.351-2h5.773l2.887-5-2.887-5h-5.773l-2.887 5z"/></g><g><path d="m55.181 62c-.172 0-.347-.015-.522-.046l-21.666-3.82c-1.629-.288-2.721-1.847-2.434-3.476l3.82-21.666c.288-1.629 1.845-2.719 3.476-2.434l21.666 3.82c1.629.288 2.72 1.847 2.433 3.476l-3.82 21.666c-.256 1.453-1.525 2.479-2.953 2.479zm-21.84-5.836 21.666 3.82c.545.097 1.062-.269 1.158-.811l3.82-21.666c.096-.543-.268-1.062-.811-1.158l-21.666-3.82c-.263-.045-.528.012-.747.166-.219.153-.365.383-.411.646l-3.82 21.666c-.096.543.268 1.062.812 1.158z"/><path d="m52.098 54.442c-.058 0-.116-.005-.174-.015l-13.787-2.431c-.352-.062-.644-.307-.766-.643-.123-.335-.056-.711.173-.984l8.999-10.725c.229-.274.589-.403.94-.342.352.062.644.307.766.643l4.788 13.156c.123.335.056.711-.173.984-.192.229-.474.357-.766.357zm-11.908-4.115 10.375 1.83-3.603-9.9-6.772 8.071z"/></g><g><path d="m19.829 33.875c-1.401 0-2.657-.989-2.941-2.415l-4.297-21.576c-.156-.786.002-1.586.447-2.252.445-.667 1.124-1.12 1.91-1.276l21.576-4.297c1.624-.322 3.205.735 3.528 2.356l4.297 21.576c.156.786-.002 1.585-.447 2.252s-1.123 1.12-1.909 1.276l-21.576 4.297c-.197.039-.394.058-.587.058zm17.28-29.875c-.064 0-.13.006-.196.02l-21.576 4.297c-.262.052-.488.203-.636.425s-.201.489-.149.751l4.297 21.576c.107.541.641.893 1.176.785l21.576-4.297c.262-.052.488-.203.636-.425s.201-.489.149-.75l-4.297-21.576c-.094-.475-.513-.805-.98-.805z"/><path d="m28.469 9.937c-4.418 0-8 3.582-8 8s3.582 8 8 8 8-3.582 8-8-3.582-8-8-8zm0 14c-3.309 0-6-2.691-6-6s2.691-6 6-6 6 2.691 6 6-2.691 6-6 6z"/></g></svg>