<?xml version="1.0" encoding="iso-8859-1"?>
<!-- Generator: Adobe Illustrator 19.0.0, SVG Export Plug-In . SVG Version: 6.00 Build 0)  -->
<svg version="1.1" id="Capa_1" xmlns="http://www.w3.org/2000/svg" xmlns:xlink="http://www.w3.org/1999/xlink" x="0px" y="0px"
	 viewBox="0 0 512 512" style="enable-background:new 0 0 512 512;" xml:space="preserve">
<g>
	<g>
		<path d="M350.611,279.657c-15.352-17.703-35.76-26.492-59.037-25.427c-27.522,1.264-47.455,16.458-66.732,31.153
			c-7.078,5.396-14.397,10.975-21.882,15.648c-3.513,2.194-4.583,6.82-2.39,10.334s6.821,4.583,10.334,2.39
			c8.078-5.043,15.68-10.838,23.031-16.442c18.248-13.91,35.483-27.049,58.326-28.098c23.407-1.077,38.484,10.429,47.017,20.269
			c16.172,18.649,23.393,47.685,18.395,73.972c-10.647,55.997-68.699,86.212-117.915,86.212
			c-86.558,0-131.956-50.324-151.313-80.322c-4.529-7.019-3.494-16.38,2.46-22.26c4.772-4.712,9.63-4.849,18.511-4.696
			c3.464,0.061,7.046,0.123,10.89-0.257c21.625-2.139,42.694-7.129,62.62-14.832c3.863-1.494,5.784-5.836,4.291-9.7
			c-1.493-3.864-5.836-5.786-9.7-4.292c-18.663,7.215-38.409,11.891-58.687,13.896c-2.976,0.295-5.975,0.241-9.151,0.187
			c-9.291-0.161-19.826-0.347-29.312,9.02c-10.98,10.843-12.884,28.114-4.525,41.067c9.784,15.162,27.058,37.017,53.793,55.034
			c31.662,21.336,68.712,32.155,110.123,32.155c29.745,0,59.449-9.199,83.641-25.902c26.525-18.314,43.472-43.387,49.01-72.508
			C378.232,335.634,369.675,301.641,350.611,279.657z"/>
	</g>
</g>
<g>
	<g>
		<path d="M391.799,105.86l-3.607-15.269c-0.952-4.031-4.99-6.525-9.023-5.575c-4.031,0.953-6.527,4.992-5.575,9.023
			c0,0,3.604,15.255,3.607,15.269c0.935,3.96,5.068,6.508,9.023,5.575C390.255,113.931,392.752,109.892,391.799,105.86z"/>
	</g>
</g>
<g>
	<g>
		<path d="M480.12,112.598c-1.363-0.403-2.745-0.746-4.141-1.028c6.96-9.895,13.923-24.717,9.885-41.204
			c-3.175-12.965-19.058-18.571-29.874-10.99c-5.636,3.951-14.438,8.66-24.37,8.66c-1.511,0-3.021-0.123-4.518-0.339
			c-13.149-19.889-30.956-36.552-51.699-48.304C353.01,6.706,327.578,0,301.857,0c-0.651,0-1.3,0.004-1.953,0.013
			c-39.652,0.513-76.848,16.342-104.737,44.573C167.253,72.841,151.88,110.278,151.88,150c0,32.25,10.08,62.981,29.151,88.872
			c5.445,7.393,5.013,17.62-1.028,24.317c-5.888,6.527-13.988,9.837-24.077,9.837c-17.015,0-39.144-9.033-65.772-26.849
			c-7.754-5.187-16.737-7.929-25.977-7.929c-23.235,0-42.593,16.714-46.029,39.743C11.785,320.633,8.114,400.29,55.007,454.698
			C87.778,492.721,139.38,512,208.38,512h69c43.768,0,81.884-8.665,113.291-25.753c28.748-15.641,51.39-38.489,65.477-66.072
			c28.865-56.518,20.574-127.866-21.639-186.202c-2.644-3.654-2.901-8.479-0.671-12.593c7.778-14.349,13.097-29.757,15.853-45.856
			c4.82-2.155,9.612-4.951,14.294-8.371c4.781-3.491,9.863-5.95,15.106-7.307c10.879-2.814,18.477-12.585,18.477-23.761
			C497.568,125.292,490.393,115.634,480.12,112.598z M420.651,214.232c-4.927,9.091-4.258,20.291,1.707,28.534
			c38.893,53.748,46.722,119.112,20.433,170.586c-12.888,25.234-32.835,45.327-59.288,59.719C354.32,488.95,318.615,497,277.38,497
			h-69c-64.439,0-112.218-17.527-142.011-52.095c-18.452-21.409-47.325-71.274-33.386-164.699
			c2.33-15.62,15.449-26.957,31.193-26.957c6.26,0,12.359,1.866,17.636,5.396c29.141,19.496,54.076,29.381,74.113,29.381
			c14.311,0,26.488-5.115,35.216-14.791c10.791-11.964,11.618-30.157,1.967-43.26C175.95,206.682,166.88,179.026,166.88,150
			c0-35.75,13.835-69.443,38.958-94.873c25.101-25.408,58.576-39.654,94.26-40.116c46.645-0.621,89.585,22.569,115.071,61.814
			c0,0.013,0.001,0.026,0.001,0.039c0.258,7.219-0.115,14.504-1.098,21.661c-1.501,11.18-5.193,26.366-14.253,35.225
			c-7.382,7.218-10.621,17.894-6.627,27.693c5.329,13.073,19.966,19.345,33.343,19.345c2.31,0.001,4.632-0.168,6.919-0.486
			C430.747,192.145,426.459,203.517,420.651,214.232z M475.334,145.325c-7.084,1.833-13.878,5.102-20.195,9.715
			c-5.743,4.194-11.018,6.811-15.663,8.418c-8.158,2.824-17.869,3.653-25.673-0.692c-3.396-1.892-5.683-4.442-6.719-6.985
			c-1.964-4.819,0.668-8.807,3.223-11.305c0.01-0.01,0.019-0.02,0.029-0.03c9.274-9.047,14.311-21.927,16.93-34.397
			c0.006-0.029,0.012-0.058,0.019-0.087c2.224-10.289,2.843-20.145,2.943-26.947c11.42,0.337,23.305-3.599,34.373-11.356
			c2.373-1.663,5.973-0.669,6.695,2.275c4.91,20.048-16.004,38.742-16.203,38.917c-2.498,2.178-3.271,5.737-1.9,8.754
			c1.37,3.018,4.556,4.779,7.842,4.331c5.111-0.695,10.142-0.339,14.835,1.048C484.999,129.682,484.321,143,475.334,145.325z"/>
	</g>
</g>
<g>
</g>
<g>
</g>
<g>
</g>
<g>
</g>
<g>
</g>
<g>
</g>
<g>
</g>
<g>
</g>
<g>
</g>
<g>
</g>
<g>
</g>
<g>
</g>
<g>
</g>
<g>
</g>
<g>
</g>
</svg>
