<svg id="Capa_1" enable-background="new 0 0 510 510" height="512" viewBox="0 0 510 510" width="512" xmlns="http://www.w3.org/2000/svg"><g><g><path id="XMLID_700_" d="m30 420h30v-120h30v-30h-90v30h30z"/><path id="XMLID_1949_" d="m172 330h-30v-60h-30v150h30v-60h30v60h30v-150h-30z"/><path id="XMLID_1950_" d="m232 270h30v150h-30z"/><path id="XMLID_1951_" d="m210 240h60v-30h-30v-30h30v-30h-30v-30h30v-30h-60z"/><path id="XMLID_1952_" d="m150 240 30-72v-78h-30v72l-15 36-15-36v-72h-30v78l30 72z"/><path id="XMLID_1953_" d="m60 210h-30v-30h30v-30h-30v-30h30v-30h-60v150h60z"/><path id="XMLID_1956_" d="m345 90h-45v150h30v-60h15c8.272 0 15 6.729 15 15v45h30v-45c0-11.517-4.353-22.032-11.495-30 7.142-7.968 11.495-18.483 11.495-30 0-24.813-20.186-45-45-45zm-15 60v-30h15c8.272 0 15 6.729 15 15s-6.728 15-15 15z"/><path id="XMLID_1957_" d="m510 90h-30v40.458l-15 22.5-15-22.5v-40.458h-30v49.542l30 45v55.458h30v-55.458l30-45z"/><path id="XMLID_1958_" d="m352 341.378-30.038-71.378h-29.962v150h30v-72.566l30.538 72.566h29.462v-150h-30z"/><path id="XMLID_1960_" d="m405 320.5v45c0 28.949 23.552 52.5 52.5 52.5h52.5v-90h-45v30h15v30h-22.5c-12.406 0-22.5-10.093-22.5-22.5v-45c0-12.407 10.094-22.5 22.5-22.5h52.5v-30h-52.5c-28.948 0-52.5 23.551-52.5 52.5z"/></g><path id="XMLID_1_" d="m0 450h510v30h-510z"/><path id="XMLID_526_" d="m0 30h510v30h-510z"/></g></svg>