<svg id="Layer_1" enable-background="new 0 0 512 512" height="512" viewBox="0 0 512 512" width="512" xmlns="http://www.w3.org/2000/svg"><path d="m408 120h-40v-31.38c0-48.865-39.755-88.62-88.62-88.62h-46.76c-48.865 0-88.62 39.755-88.62 88.62v31.38h-40c-13.233 0-24 10.767-24 24s10.767 24 24 24h24v35.66c0 22.556 16.933 41.217 38.752 43.975l-38.662 255.167c-.349 2.305.324 4.647 1.844 6.414 1.52 1.768 3.735 2.784 6.066 2.784h32c3.956 0 7.317-2.891 7.91-6.802l17.151-113.198h125.878l17.151 113.198c.592 3.911 3.954 6.802 7.91 6.802h32c2.331 0 4.546-1.017 6.066-2.784s2.193-4.109 1.844-6.414l-38.662-255.167c21.819-2.758 38.752-21.419 38.752-43.975v-35.66h24c13.233 0 24-10.767 24-24s-10.767-24-24-24zm-248-31.38c0-40.043 32.577-72.62 72.62-72.62h46.76c40.043 0 72.62 32.577 72.62 72.62v31.38h-192zm1.121 407.38h-15.817l37.576-248h15.817zm136-248 14.545 96h-111.332l14.545-96zm-101.636 128 2.424-16h116.181l2.424 16zm155.394 120-37.576-248h15.817l37.576 248zm17.121-292.34c0 15.626-12.713 28.34-28.34 28.34h-3.66-32-96-32-3.66c-15.626 0-28.34-12.713-28.34-28.34v-35.66h8v6.86c0 24.449 19.891 44.34 44.34 44.34h28.494c12.774 0 23.166-10.392 23.166-23.166v-28.034h16v28.034c0 12.774 10.392 23.166 23.166 23.166h28.494c24.449 0 44.34-19.891 44.34-44.34v-6.86h8zm-200-35.66h64v28.034c0 3.951-3.215 7.166-7.166 7.166h-28.494c-15.626 0-28.34-12.713-28.34-28.34zm112 0h64v6.86c0 15.627-12.713 28.34-28.34 28.34h-28.494c-3.951 0-7.166-3.215-7.166-7.166zm128-16h-56-192-56c-4.411 0-8-3.589-8-8s3.589-8 8-8h304c4.411 0 8 3.589 8 8s-3.589 8-8 8z"/></svg>