<?xml version="1.0" encoding="UTF-8"?>
<svg xmlns="http://www.w3.org/2000/svg" id="icons" viewBox="0 0 60 60" width="512" height="512"><path d="M53,20H48.753l.6-.589a5.44,5.44,0,0,0-2.436-9.194A9.023,9.023,0,0,0,44.3,2.6a9.522,9.522,0,0,0-13.059,0L30,3.826,28.765,2.6a9.521,9.521,0,0,0-13.059,0,9.026,9.026,0,0,0-2.622,7.633A5.364,5.364,0,0,0,9,15.48a5.47,5.47,0,0,0,1.659,3.935l.6.585H7a3,3,0,0,0-3,3v4a3,3,0,0,0,3,3H8.569L23,45.394V57a3.011,3.011,0,0,0,1.249,2.435,2.961,2.961,0,0,0,2.7.413l8-2.668A2.993,2.993,0,0,0,37,54.327V45.394L51.434,30H53a3,3,0,0,0,3-3V23A3,3,0,0,0,53,20Zm-4-4.517a3.494,3.494,0,0,1-1.048,2.5L45.893,20H36.118l-2.056-2.013a3.472,3.472,0,0,1,0-4.993,3.842,3.842,0,0,1,5.147,0l1.091,1.07a1,1,0,0,0,1.4,0L42.79,13a3.861,3.861,0,0,1,5.161,0A3.478,3.478,0,0,1,49,15.483ZM17.115,4.022a7.468,7.468,0,0,1,10.242,0l1.94,1.92a1,1,0,0,0,1.407,0l1.941-1.922a7.468,7.468,0,0,1,10.242,0,7.041,7.041,0,0,1,2.039,6,5.626,5.626,0,0,0-3.535,1.54L41,11.95l-.391-.385a5.855,5.855,0,0,0-7.947,0,5.471,5.471,0,0,0,0,7.849l.6.585H26.751l.6-.589a5.492,5.492,0,0,0-.005-7.846,5.8,5.8,0,0,0-7.96,0L19,11.95l-.391-.385a5.6,5.6,0,0,0-3.529-1.513A7.049,7.049,0,0,1,17.115,4.022ZM12.06,17.987a3.472,3.472,0,0,1,0-4.992,3.842,3.842,0,0,1,5.149,0l1.091,1.07a1,1,0,0,0,1.4,0L20.788,13a3.861,3.861,0,0,1,5.161,0,3.493,3.493,0,0,1,0,4.991L23.892,20H14.117ZM35.272,44.314A1,1,0,0,0,35,45v9.329a1,1,0,0,1-.686.952l-8,2.669A1,1,0,0,1,25,57V45a1,1,0,0,0-.27-.684L11.309,30H48.693ZM54,27a1,1,0,0,1-1,1H7a1,1,0,0,1-1-1V23a1,1,0,0,1,1-1H53a1,1,0,0,1,1,1Z"/></svg>
