<svg id="icons" height="512" viewBox="0 0 60 60" width="512" xmlns="http://www.w3.org/2000/svg"><path d="m51 29-15 16v9.329a2 2 0 0 1 -1.37 1.9l-8 2.67a2 2 0 0 1 -2.63-1.899v-12l-15-16v-1h42z" fill="#9ebbce"/><path d="m14.238 11.022a8.093 8.093 0 0 1 2.17-7.709 8.493 8.493 0 0 1 11.651 0l1.941 1.92 1.94-1.92a8.493 8.493 0 0 1 11.651 0 8.093 8.093 0 0 1 2.17 7.709l-3.761 11.978h-23z" fill="#cd4c60"/><path d="m46.3 21 2.35-2.3a4.489 4.489 0 0 0 0-6.418 4.836 4.836 0 0 0 -6.56 0l-1.09 1.069-1.09-1.069a4.823 4.823 0 0 0 -6.55 0 4.472 4.472 0 0 0 0 6.418l2.35 2.3 1.29 1h8z" fill="#a53c50"/><path d="m24.3 21 2.35-2.3a4.489 4.489 0 0 0 0-6.418 4.836 4.836 0 0 0 -6.56 0l-1.09 1.069-1.09-1.069a4.823 4.823 0 0 0 -6.55 0 4.472 4.472 0 0 0 0 6.418l2.35 2.3 1.29 1h8z" fill="#a53c50"/><rect fill="#b0ccdd" height="8" rx="2" width="50" x="5" y="21"/></svg>