<svg height="512pt" viewBox="0 -12 512 512" width="512pt" xmlns="http://www.w3.org/2000/svg"><path d="m504.394531 367.699219c4.199219 0 7.605469-3.40625 7.605469-7.605469v-160.316406c0-32.445313-26.394531-58.84375-58.839844-58.84375h-246.554687l181.414062-65.144532c3.859375 9.808594 13.304688 15.90625 23.355469 15.90625 2.804688 0 5.664062-.476562 8.453125-1.480468 13.023437-4.675782 19.8125-19.074219 15.136719-32.097656l-14.90625-41.503907c-4.675782-13.019531-19.078125-19.8125-32.097656-15.136719-12.78125 4.59375-19.550782 18.550782-15.371094 31.378907l-160.035156 57.46875c-3.949219 1.421875-6.003907 5.773437-4.585938 9.726562s5.773438 6.007813 9.726562 4.585938l160.015626-57.460938 5.136718 14.308594-221.242187 79.449219h-44.984375l74.546875-26.769532c3.953125-1.417968 6.003906-5.773437 4.585937-9.726562-1.417968-3.949219-5.773437-6.003906-9.726562-4.585938l-114.398438 41.082032h-12.785156c-32.445312 0-58.84375 26.398437-58.84375 58.84375v230.070312c0 32.445313 26.398438 58.84375 58.84375 58.84375h394.316406c32.445313 0 58.839844-26.398437 58.839844-58.84375v-39.335937c0-4.199219-3.40625-7.601563-7.605469-7.601563s-7.601562 3.402344-7.601562 7.601563v39.335937c0 24.058594-19.574219 43.632813-43.632813 43.632813h-394.316406c-24.0625 0-43.636719-19.574219-43.636719-43.632813v-230.070312c0-24.0625 19.574219-43.632813 43.636719-43.632813h394.316406c24.058594 0 43.632813 19.570313 43.632813 43.632813v160.316406c0 4.199219 3.402343 7.605469 7.601562 7.605469zm-111.292969-351.90625c1.101563-.394531 2.226563-.582031 3.332032-.582031 4.054687 0 7.867187 2.511718 9.3125 6.542968l14.90625 41.507813c1.84375 5.128906-.832032 10.800781-5.960938 12.640625-2.484375.894531-5.167968.765625-7.554687-.359375-2.390625-1.128907-4.195313-3.117188-5.089844-5.601563l-2.292969-6.386718c-.007812-.019532-.007812-.035157-.015625-.050782l-10.28125-28.621094c-.003906-.007812-.003906-.015624-.007812-.023437l-2.304688-6.421875c-1.847656-5.132812.828125-10.804688 5.957031-12.644531zm0 0"/><path d="m104.007812 228.492188h99.191407c7.277343 0 13.265625-4.761719 14.910156-11.851563 1.640625-7.089844-1.648437-14.003906-8.179687-17.199219-17.617188-8.621094-36.566407-12.992187-56.324219-12.992187-19.761719 0-38.710938 4.371093-56.328125 12.992187-6.53125 3.195313-9.820313 10.109375-8.179688 17.199219 1.640625 7.085937 7.632813 11.851563 14.910156 11.851563zm-.042968-15.390626c15.515625-7.597656 32.214844-11.445312 49.636718-11.445312 17.421876 0 34.125 3.847656 49.640626 11.445312.023437.007813.046874.019532.0625.03125-.003907.046876-.015626.105469-.035157.148438-.019531 0-.042969.003906-.070312.003906h-99.191407c-.027343 0-.050781-.003906-.070312-.003906-.019531-.042969-.03125-.101562-.035156-.148438.015625-.011718.035156-.023437.0625-.03125zm0 0"/><path d="m42.484375 250.515625-.152344.261719c-3.789062 6.566406-3.789062 14.40625 0 20.960937 3.769531 6.53125 10.527344 10.425781 18.074219 10.425781h186.394531c7.542969 0 14.300781-3.894531 18.074219-10.425781 3.789062-6.554687 3.789062-14.394531.015625-20.9375l-.175781-.300781c-3.710938-6.402344-10.632813-10.378906-18.066406-10.378906h-186.089844c-7.433594 0-14.355469 3.976562-18.074219 10.394531zm209.085937 7.628906.128907.230469c1.503906 2.605469.507812 4.890625.007812 5.753906-.492187.851563-1.953125 2.828125-4.90625 2.828125h-186.394531c-2.953125 0-4.414062-1.976562-4.90625-2.828125-.5-.863281-1.496094-3.148437.003906-5.753906l.144532-.246094c1-1.726562 2.882812-2.800781 4.910156-2.800781h186.089844c2.027343 0 3.910156 1.074219 4.921874 2.816406zm0 0"/><path d="m281.96875 315.125v-.601562c-.027344-11.429688-9.398438-20.730469-20.894531-20.730469h-214.941407c-11.496093 0-20.867187 9.300781-20.894531 20.746093v.5625c.027344 11.429688 9.398438 20.726563 20.894531 20.726563h214.941407c11.496093 0 20.867187-9.296875 20.894531-20.703125zm-15.207031-.058594c-.007813 3.0625-2.558594 5.554688-5.6875 5.554688h-214.941407c-3.128906 0-5.679687-2.492188-5.6875-5.535156v-.53125c.007813-3.0625 2.558594-5.550782 5.6875-5.550782h214.941407c3.128906 0 5.679687 2.488282 5.6875 5.578125zm0 0"/><path d="m264.707031 379.136719.167969-.289063c3.789062-6.570312 3.789062-14.40625 0-20.960937-3.769531-6.53125-10.527344-10.429688-18.074219-10.429688h-186.394531c-7.546875 0-14.300781 3.898438-18.074219 10.429688-3.789062 6.554687-3.789062 14.390625 0 20.964843l.160157.273438c3.710937 6.402344 10.636718 10.378906 18.066406 10.378906h186.089844c7.433593 0 14.355468-3.980468 18.058593-10.367187zm-209.050781-7.628907-.148438-.257812c-1.503906-2.605469-.507812-4.894531-.007812-5.757812.492188-.847657 1.953125-2.828126 4.90625-2.828126h186.394531c2.953125 0 4.414063 1.976563 4.90625 2.828126.5.863281 1.496094 3.152343-.007812 5.757812-.003907.007812-.007813.015625-.015625.023438l-.125.21875c-1.003906 1.730468-2.882813 2.800781-4.910156 2.800781h-186.089844c-2.027344.003906-3.910156-1.070313-4.902344-2.785157zm0 0"/><path d="m203.199219 401.132812h-99.191407c-7.277343 0-13.269531 4.761719-14.910156 11.851563s1.644532 14.003906 8.179688 17.199219c17.617187 8.621094 36.566406 12.992187 56.324218 12.992187 19.757813 0 38.707032-4.371093 56.324219-12.992187 6.535157-3.195313 9.824219-10.109375 8.179688-17.199219-1.636719-7.089844-7.628907-11.851563-14.90625-11.851563zm.042969 15.390626c-15.515626 7.59375-32.21875 11.445312-49.636719 11.445312-17.421875 0-34.125-3.851562-49.640625-11.445312-.023438-.007813-.046875-.019532-.0625-.03125.003906-.046876.015625-.105469.035156-.148438.019531-.003906.042969-.003906.070312-.003906h99.191407c.027343 0 .050781 0 .070312.003906.019531.042969.03125.101562.035157.148438-.015626.011718-.035157.019531-.0625.03125zm0 0"/><path d="m477.53125 272.558594v-30.054688c0-14.078125-11.449219-25.527344-25.527344-25.527344h-137.523437c-14.074219 0-25.527344 11.449219-25.527344 25.527344v30.054688c0 14.074218 11.449219 25.527344 25.527344 25.527344h137.523437c14.078125 0 25.527344-11.453126 25.527344-25.527344zm-173.371094 0v-30.054688c0-5.691406 4.628906-10.320312 10.320313-10.320312h137.523437c5.691406 0 10.320313 4.628906 10.320313 10.320312v30.054688c0 5.691406-4.628907 10.320312-10.320313 10.320312h-34.289062v-17.238281c0-11.738281-9.550782-21.289063-21.289063-21.289063-11.742187 0-21.292969 9.550782-21.292969 21.289063v17.238281h-60.652343c-5.691407-.003906-10.320313-4.632812-10.320313-10.320312zm86.179688 10.316406v-17.234375c0-3.355469 2.726562-6.082031 6.082031-6.082031s6.085937 2.726562 6.085937 6.082031v17.234375zm0 0"/><path d="m383.242188 320.386719c-28.789063 0-52.214844 23.425781-52.214844 52.214843 0 28.792969 23.425781 52.214844 52.214844 52.214844 3.566406 0 7.152343-.367187 10.671874-1.09375 24.070313-5 41.542969-26.5 41.542969-51.121094 0-24.621093-17.472656-46.121093-41.554687-51.125-3.503906-.722656-7.089844-1.089843-10.660156-1.089843zm37.007812 52.214843c0 17.453126-12.378906 32.691407-29.417969 36.230469-2.5.515625-5.050781.777344-7.589843.777344-20.40625 0-37.003907-16.601563-37.003907-37.007813 0-20.402343 16.597657-37.003906 37.003907-37.003906 2.539062 0 5.09375.257813 7.578124.773438 17.050782 3.542968 29.429688 18.777344 29.429688 36.230468zm0 0"/><path d="m388.660156 346.003906c-2.730468 1.753906-3.953125 5.253906-3.105468 8.347656.851562 3.121094 3.714843 5.414063 6.949218 5.570313 3.238282.160156 6.289063-1.84375 7.457032-4.859375 1.113281-2.878906.34375-6.242188-1.9375-8.332031-2.539063-2.332031-6.496094-2.664063-9.363282-.726563zm0 0"/></svg>