<svg id="Capa_1" enable-background="new 0 0 512 512" height="512" viewBox="0 0 512 512" width="512" xmlns="http://www.w3.org/2000/svg"><g><path d="m217.203 512h-46.536l-45.947-64.018c15.013-41.587 41.101-56.961 41.101-56.961h110.285z" fill="#fd8b9b"/><path d="m250.343 443.936 25.764-52.915h-110.286s-11.045 6.518-22.896 22.52c31.423 18.909 68.361 29.465 107.418 30.395z" fill="#e75b70"/><path d="m387.28 447.982-45.947 64.018h-124.13v-26.058c0-23.061 9.165-45.182 25.469-61.487l33.435-33.435h70.073c-.001.001 26.088 15.375 41.1 56.962z" fill="#e75b70"/><path d="m170.667 459.771v52.229h-56.289c0-26.099 4.267-47.197 10.342-64.018z" fill="#fed2a4"/><path d="m397.623 512h-56.289v-52.229l45.947-11.789c6.074 16.821 10.342 37.919 10.342 64.018z" fill="#fed2a4"/><path d="m108.582 157.849c-43.589 0-78.925-35.336-78.925-78.925s35.336-78.924 78.925-78.924c33.374 0 61.91 20.715 73.452 49.989z" fill="#303646"/><circle cx="165.824" cy="49.989" fill="#fd8b9b" r="37.823"/><circle cx="403.418" cy="78.925" fill="#303646" r="78.925"/><circle cx="346.176" cy="49.989" fill="#fd8b9b" r="37.823"/><path d="m148.479 34.6c0-7.314 1.76-14.213 4.862-20.315-14.753 5.158-25.34 19.191-25.34 35.704 0 20.889 16.934 37.822 37.822 37.822 9.044 0 17.344-3.179 23.852-8.474-23.063-1.886-41.196-21.187-41.196-44.737z" fill="#e75b70"/><path d="m337.309 49.916c0-15.362 8.456-28.742 20.962-35.763-3.799-1.282-7.863-1.987-12.094-1.987-20.889 0-37.822 16.934-37.822 37.822s16.934 37.822 37.822 37.822c4.291 0 8.41-.724 12.255-2.041-12.596-6.994-21.123-20.425-21.123-35.853z" fill="#e75b70"/><path d="m39.907 249.052c0-119.154 96.939-216.093 216.093-216.093 119.155 0 216.093 96.939 216.093 216.093z" fill="#475066"/><circle cx="433.061" cy="249.052" fill="#ffbd86" r="47.436"/><path d="m121.975 212.159c0-69.055 30.988-130.863 79.806-172.309-92.999 24.118-161.874 108.767-161.874 209.203h85.083c-1.973-12.008-3.015-24.328-3.015-36.894z" fill="#303646"/><path d="m346.179 391.021h-70.073l-33.435 33.435c-5.408 5.407-10.011 11.466-13.774 17.976 8.9 1.038 17.947 1.576 27.103 1.576 41.144 0 80.139-10.647 113.075-30.468-11.851-16.001-22.896-22.519-22.896-22.519z" fill="#c74156"/><path d="m421.325 191.876c-7.415-21.432-27.652-35.772-50.331-35.772h-61.993c-10.159 0-19.902-4.036-27.085-11.219l-12.153-12.154c-7.601-7.601-19.924-7.601-27.525 0l-12.153 12.154c-7.183 7.183-16.926 11.219-27.085 11.219h-61.993c-22.679 0-42.916 14.339-50.331 35.772-6.199 17.916-9.567 37.152-9.567 57.176 0 96.591 78.302 164.05 174.893 164.05s174.893-67.46 174.893-164.05c-.002-20.024-3.371-39.26-9.57-57.176z" fill="#fed2a4"/><path d="m243.813 412.732c-72.391-37.653-121.838-113.334-121.838-200.573 0-18.829 2.318-37.115 6.658-54.602-17.412 4.148-31.926 16.887-37.958 34.32-1.198 3.463-2.288 6.976-3.27 10.534-2.702-.513-5.523-.794-8.465-.794-26.198 0-47.436 21.238-47.436 47.437 0 26.198 21.238 47.436 47.436 47.436 3.024 0 5.921-.295 8.691-.836 19.62 67.363 81.439 112.625 156.182 117.078z" fill="#ffbd86"/><g fill="#fd8b9b"><ellipse cx="152.552" cy="273.76" rx="38.17" ry="30.397"/><ellipse cx="359.448" cy="273.76" rx="38.17" ry="30.397"/></g><g><path d="m192.966 248.409c-4.268 0-7.726-3.459-7.726-7.726 0-5.758-4.684-10.442-10.442-10.442-5.759 0-10.443 4.684-10.443 10.442 0 4.267-3.459 7.726-7.726 7.726s-7.726-3.459-7.726-7.726c0-14.278 11.617-25.894 25.895-25.894s25.894 11.616 25.894 25.894c.001 4.267-3.458 7.726-7.726 7.726z" fill="#303646"/></g><g><path d="m355.371 248.409c-4.268 0-7.726-3.459-7.726-7.726 0-5.758-4.684-10.442-10.443-10.442-5.758 0-10.442 4.684-10.442 10.442 0 4.267-3.459 7.726-7.726 7.726s-7.726-3.459-7.726-7.726c0-14.278 11.616-25.894 25.894-25.894 14.279 0 25.895 11.616 25.895 25.894 0 4.267-3.459 7.726-7.726 7.726z" fill="#303646"/></g><g><path d="m256 278.424c-9.619 0-18.767-4.166-25.098-11.43-2.804-3.217-2.468-8.097.748-10.901 3.216-2.803 8.097-2.469 10.901.748 3.395 3.896 8.297 6.13 13.448 6.13s10.051-2.234 13.447-6.13c2.804-3.217 7.684-3.552 10.901-.748 3.216 2.804 3.552 7.684.749 10.901-6.33 7.264-15.477 11.43-25.096 11.43z" fill="#303646"/></g><path d="m66.327 145.592 67.835-74.92-10.618-5.512-61.429 49.823z" fill="#303646"/></g></svg>