<?xml version="1.0" encoding="UTF-8" standalone="no"?>
<!-- Created with Inkscape (http://www.inkscape.org/) -->

<svg
   version="1.1"
   id="svg297"
   xml:space="preserve"
   width="682.66669"
   height="682.66669"
   viewBox="0 0 682.66669 682.66669"
   xmlns="http://www.w3.org/2000/svg"
   xmlns:svg="http://www.w3.org/2000/svg"><defs
     id="defs301"><clipPath
       clipPathUnits="userSpaceOnUse"
       id="clipPath311"><path
         d="M 0,512 H 512 V 0 H 0 Z"
         id="path309" /></clipPath></defs><g
     id="g303"
     transform="matrix(1.3333333,0,0,-1.3333333,0,682.66667)"><g
       id="g305"><g
         id="g307"
         clip-path="url(#clipPath311)"><g
           id="g313"
           transform="translate(194.8125,270.8687)"><path
             d="M 0,0 C 0,9.74 -7.896,17.636 -17.636,17.636 -27.376,17.636 -35.271,9.74 -35.271,0"
             style="fill:none;stroke:#000000;stroke-width:15;stroke-linecap:round;stroke-linejoin:round;stroke-miterlimit:10;stroke-dasharray:none;stroke-opacity:1"
             id="path315" /></g><g
           id="g317"
           transform="translate(317.1875,270.8687)"><path
             d="M 0,0 C 0,9.74 7.896,17.636 17.636,17.636 27.376,17.636 35.271,9.74 35.271,0"
             style="fill:none;stroke:#000000;stroke-width:15;stroke-linecap:round;stroke-linejoin:round;stroke-miterlimit:10;stroke-dasharray:none;stroke-opacity:1"
             id="path319" /></g><g
           id="g321"
           transform="translate(237.293,250.2559)"><path
             d="m 0,0 c 4.548,-5.219 11.239,-8.522 18.707,-8.522 7.467,0 14.158,3.303 18.707,8.522"
             style="fill:none;stroke:#000000;stroke-width:15;stroke-linecap:round;stroke-linejoin:round;stroke-miterlimit:10;stroke-dasharray:none;stroke-opacity:1"
             id="path323" /></g><g
           id="g325"
           transform="translate(39.8633,451.0547)"><path
             d="m 0,0 c -2.316,-7.31 -3.574,-15.091 -3.574,-23.167 0,-27.228 14.216,-51.12 35.617,-64.708 15.944,29.102 38.576,54.041 65.829,72.714 -3.779,5.772 -5.984,12.668 -5.984,20.082 0,16.152 10.434,29.858 24.927,34.77 -12.412,8.66 -27.496,13.754 -43.777,13.754 -23.052,0 -43.709,-10.195 -57.754,-26.304"
             style="fill:none;stroke:#000000;stroke-width:15;stroke-linecap:round;stroke-linejoin:round;stroke-miterlimit:10;stroke-dasharray:none;stroke-opacity:1"
             id="path327" /></g><g
           id="g329"
           transform="translate(380.249,455.9756)"><path
             d="m 0,0 c 0,-7.414 -2.205,-14.31 -5.984,-20.082 27.253,-18.673 49.884,-43.612 65.829,-72.713 21.401,13.587 35.617,37.48 35.617,64.707 0,42.312 -34.301,76.612 -76.612,76.612 C 2.567,48.524 -12.517,43.43 -24.928,34.77 -10.436,29.858 0,16.152 0,0 Z"
             style="fill:none;stroke:#000000;stroke-width:15;stroke-linecap:round;stroke-linejoin:round;stroke-miterlimit:10;stroke-dasharray:none;stroke-opacity:1"
             id="path331" /></g><g
           id="g333"
           transform="translate(203.8027,465.9312)"><path
             d="m 0,0 c -4.341,15.437 -18.513,26.759 -35.337,26.759 -20.277,0 -36.715,-16.438 -36.715,-36.715 0,-7.414 2.205,-14.31 5.985,-20.081 C -46.219,-16.438 -23.932,-6.151 0,0 Z"
             style="fill:none;stroke:#000000;stroke-width:15;stroke-linecap:round;stroke-linejoin:round;stroke-miterlimit:10;stroke-dasharray:none;stroke-opacity:1"
             id="path335" /></g><g
           id="g337"
           transform="translate(374.2646,435.894)"><path
             d="m 0,0 c 3.779,5.772 5.984,12.667 5.984,20.082 0,20.276 -16.437,36.714 -36.714,36.714 -16.826,0 -30.997,-11.322 -35.337,-26.759 C -42.136,23.886 -19.849,13.599 0,0 Z"
             style="fill:none;stroke:#000000;stroke-width:15;stroke-linecap:round;stroke-linejoin:round;stroke-miterlimit:10;stroke-dasharray:none;stroke-opacity:1"
             id="path339" /></g><g
           id="g341"
           transform="translate(84.126,308.791)"><path
             d="m 0,0 c 2.809,0 5.554,-0.265 8.224,-0.747 0.952,3.445 2.007,6.848 3.168,10.201 7.198,20.804 26.842,34.724 48.857,34.724 h 60.177 c 9.861,0 19.318,3.917 26.292,10.89 l 11.797,11.797 c 7.378,7.379 19.34,7.379 26.718,0 L 197.03,55.068 c 6.973,-6.973 16.431,-10.89 26.292,-10.89 h 60.177 c 22.015,0 41.659,-13.92 48.856,-34.724 1.161,-3.353 2.216,-6.756 3.168,-10.201 2.67,0.482 5.415,0.747 8.225,0.747 14.519,0 27.459,-6.726 35.898,-17.225 C 365.557,84.849 277.76,163.715 171.874,163.715 65.988,163.715 -21.809,84.849 -35.899,-17.224 -27.459,-6.726 -14.519,0 0,0 Z"
             style="fill:none;stroke:#000000;stroke-width:15;stroke-linecap:round;stroke-linejoin:round;stroke-miterlimit:10;stroke-dasharray:none;stroke-opacity:1"
             id="path343" /></g><g
           id="g345"
           transform="translate(86.2314,262.7441)"><path
             d="m 0,0 c 0,15.689 2.133,30.879 6.118,45.3 -2.67,0.482 -5.415,0.747 -8.223,0.747 -25.431,0 -46.047,-20.616 -46.047,-46.047 0,-25.431 20.616,-46.047 46.047,-46.047 2.883,0 5.7,0.278 8.436,0.785 C 2.209,-31.117 0,-15.97 0,0 Z"
             style="fill:none;stroke:#000000;stroke-width:15;stroke-linecap:round;stroke-linejoin:round;stroke-miterlimit:10;stroke-dasharray:none;stroke-opacity:1"
             id="path347" /></g><g
           id="g349"
           transform="translate(427.874,308.791)"><path
             d="m 0,0 c -2.81,0 -5.555,-0.265 -8.225,-0.747 3.987,-14.42 6.12,-29.61 6.12,-45.3 0,-15.97 -2.209,-31.117 -6.332,-45.262 2.737,-0.506 5.553,-0.785 8.437,-0.785 25.431,0 46.046,20.616 46.046,46.047 C 46.046,-20.616 25.431,0 0,0 Z"
             style="fill:none;stroke:#000000;stroke-width:15;stroke-linecap:round;stroke-linejoin:round;stroke-miterlimit:10;stroke-dasharray:none;stroke-opacity:1"
             id="path351" /></g><g
           id="g353"
           transform="translate(395.1123,168.9229)"><path
             d="m 0,0 c 19.313,25.631 30.656,57.615 30.656,93.821 0,19.438 -3.269,38.111 -9.287,55.501 -7.197,20.804 -26.842,34.724 -48.856,34.724 h -60.177 c -9.861,0 -19.319,3.917 -26.292,10.89 l -11.797,11.797 c -7.378,7.379 -19.341,7.379 -26.719,0 l -11.797,-11.797 c -6.973,-6.973 -16.43,-10.89 -26.292,-10.89 h -60.176 c -22.015,0 -41.659,-13.92 -48.858,-34.724 -6.016,-17.39 -9.286,-36.063 -9.286,-55.501 0,-93.76 76.008,-159.244 169.769,-159.244 46.243,0 88.159,15.938 118.777,43.332"
             style="fill:none;stroke:#000000;stroke-width:15;stroke-linecap:round;stroke-linejoin:round;stroke-miterlimit:10;stroke-dasharray:none;stroke-opacity:1"
             id="path355" /></g><g
           id="g357"
           transform="translate(168.4746,124.9346)"><path
             d="m 0,0 h -0.012 c 0,0 -25.324,-14.924 -39.897,-55.292 L 4.692,-66.736 v -50.699 h 45.172 v 25.295 c 0,22.386 8.897,43.858 24.723,59.685 l 11.042,11.041 C 54.324,-21.118 25.053,-13.52 0,0 Z"
             style="fill:none;stroke:#000000;stroke-width:15;stroke-linecap:round;stroke-linejoin:round;stroke-miterlimit:10;stroke-dasharray:none;stroke-opacity:1"
             id="path359" /></g><g
           id="g361"
           transform="translate(173.167,58.1987)"><path
             d="m 0,0 v -50.699 h -54.641 c 0,25.335 4.143,45.815 10.039,62.143 z"
             style="fill:none;stroke:#000000;stroke-width:15;stroke-linecap:round;stroke-linejoin:round;stroke-miterlimit:10;stroke-dasharray:none;stroke-opacity:1"
             id="path363" /></g><g
           id="g365"
           transform="translate(383.4336,69.6426)"><path
             d="m 0,0 v 0 c -14.572,40.368 -39.896,55.292 -39.896,55.292 h -0.012 C -65.467,41.5 -95.414,33.857 -127.434,33.857 c -0.633,0 -1.264,0.015 -1.896,0.021 l -11.042,-11.041 c -15.826,-15.827 -24.723,-37.299 -24.723,-59.685 v -25.295 h 120.494 v 50.699 z"
             style="fill:none;stroke:#000000;stroke-width:15;stroke-linecap:round;stroke-linejoin:round;stroke-miterlimit:10;stroke-dasharray:none;stroke-opacity:1"
             id="path367" /></g><g
           id="g369"
           transform="translate(393.4736,7.5)"><path
             d="M 0,0 H -54.641 V 50.699 L -10.04,62.143 C -4.143,45.814 0,25.334 0,0 Z"
             style="fill:none;stroke:#000000;stroke-width:15;stroke-linecap:round;stroke-linejoin:round;stroke-miterlimit:10;stroke-dasharray:none;stroke-opacity:1"
             id="path371" /></g></g></g></g></svg>
