<svg xmlns="http://www.w3.org/2000/svg" version="1.1" xmlns:xlink="http://www.w3.org/1999/xlink" width="512" height="512" x="0" y="0" viewBox="0 0 682.667 682.667" style="enable-background:new 0 0 512 512" xml:space="preserve" class=""><g><defs><clipPath id="a" clipPathUnits="userSpaceOnUse"><path d="M0 512h512V0H0Z" fill="#000000" opacity="1" data-original="#000000"></path></clipPath></defs><path d="M378.204 118H133.796v30h244.408z" style="fill-opacity:1;fill-rule:nonzero;stroke:none" transform="matrix(1.33333 0 0 -1.33333 0 682.667)" fill="#c25934" data-original="#c25934" class=""></path><path d="M378.204 118h-38.747v30h38.747z" style="fill-opacity:1;fill-rule:nonzero;stroke:none" transform="matrix(1.33333 0 0 -1.33333 0 682.667)" fill="#b35130" data-original="#b35130"></path><g clip-path="url(#a)" transform="matrix(1.33333 0 0 -1.33333 0 682.667)"><path d="M0 0h-247.039c-14.625 0-26.481 11.855-26.481 26.48v37.039c0 14.625 11.856 26.481 26.481 26.481H0c14.625 0 26.48-11.856 26.48-26.481V26.48C26.48 11.855 14.625 0 0 0" style="fill-opacity:1;fill-rule:nonzero;stroke:none" transform="translate(379.52 327.27)" fill="#30dbd1" data-original="#497285" class="" opacity="1"></path><path d="M0 0h-30C-15.375 0-3.52-11.856-3.52-26.48v-37.04C-3.52-78.145-15.375-90-30-90H0c14.625 0 26.48 11.855 26.48 26.48v37.04C26.48-11.856 14.625 0 0 0" style="fill-opacity:1;fill-rule:nonzero;stroke:none" transform="translate(379.52 417.27)" fill="#52db30" data-original="#426778" class="" opacity="1"></path><path d="M391.682 297.27H120.319v30h271.363z" style="fill-opacity:1;fill-rule:nonzero;stroke:none" fill="#c25934" data-original="#c25934" class=""></path><path d="M361.682 297.27h30v30h-30z" style="fill-opacity:1;fill-rule:nonzero;stroke:none" fill="#b35130" data-original="#b35130"></path><path d="M0 0h-228.461v52.635c0 19.106 15.489 34.595 34.596 34.595h159.269C-15.489 87.23 0 71.741 0 52.635Z" style="fill-opacity:1;fill-rule:nonzero;stroke:none" transform="translate(370.23 417.27)" fill="#52db30" data-original="#426778" class="" opacity="1"></path><path d="M0 0h-30C-10.894 0 4.596-15.489 4.596-34.596V-87.23h30v52.634C34.596-15.489 19.106 0 0 0" style="fill-opacity:1;fill-rule:nonzero;stroke:none" transform="translate(335.635 504.5)" fill="#298213" data-original="#3a5a69" class="" opacity="1"></path><path d="M0 0h-33.965l53.627 289.77h33.965Z" style="fill-opacity:1;fill-rule:nonzero;stroke:none" transform="translate(123.965 7.5)" fill="#d6643c" data-original="#d6643c" class=""></path><path d="M0 0h33.965l-53.627 289.77h-33.965Z" style="fill-opacity:1;fill-rule:nonzero;stroke:none" transform="translate(388.035 7.5)" fill="#d6643c" data-original="#d6643c" class=""></path><path d="M0 0h-221.846" style="stroke-width:15;stroke-linecap:round;stroke-linejoin:round;stroke-miterlimit:10;stroke-dasharray:none;stroke-opacity:1" transform="translate(366.923 118)" fill="none" stroke="#000000" stroke-width="15" stroke-linecap="round" stroke-linejoin="round" stroke-miterlimit="10" stroke-dasharray="none" stroke-opacity="" data-original="#000000" class=""></path><path d="M0 0h-210.811" style="stroke-width:15;stroke-linecap:round;stroke-linejoin:round;stroke-miterlimit:10;stroke-dasharray:none;stroke-opacity:1" transform="translate(361.405 148)" fill="none" stroke="#000000" stroke-width="15" stroke-linecap="round" stroke-linejoin="round" stroke-miterlimit="10" stroke-dasharray="none" stroke-opacity="" data-original="#000000" class=""></path><path d="M0 0h-247.039c-14.625 0-26.481 11.855-26.481 26.48v37.039c0 14.625 11.856 26.481 26.481 26.481H0c14.625 0 26.48-11.856 26.48-26.481V26.48C26.48 11.855 14.625 0 0 0Z" style="stroke-width:15;stroke-linecap:round;stroke-linejoin:round;stroke-miterlimit:10;stroke-dasharray:none;stroke-opacity:1" transform="translate(379.52 327.27)" fill="none" stroke="#000000" stroke-width="15" stroke-linecap="round" stroke-linejoin="round" stroke-miterlimit="10" stroke-dasharray="none" stroke-opacity="" data-original="#000000" class=""></path><path d="M0 0h14.635C33.741 0 49.23-15.489 49.23-34.596V-87.23h-228.46v52.634C-179.23-15.489-163.741 0-144.635 0h110.384" style="stroke-width:15;stroke-linecap:round;stroke-linejoin:round;stroke-miterlimit:10;stroke-dasharray:none;stroke-opacity:1" transform="translate(321 504.5)" fill="none" stroke="#000000" stroke-width="15" stroke-linecap="round" stroke-linejoin="round" stroke-miterlimit="10" stroke-dasharray="none" stroke-opacity="" data-original="#000000" class=""></path><path d="M0 0h-71.732v30h271.363V0H32" style="stroke-width:15;stroke-linecap:round;stroke-linejoin:round;stroke-miterlimit:10;stroke-dasharray:none;stroke-opacity:1" transform="translate(192.05 297.27)" fill="none" stroke="#000000" stroke-width="15" stroke-linecap="round" stroke-linejoin="round" stroke-miterlimit="10" stroke-dasharray="none" stroke-opacity="" data-original="#000000" class=""></path><path d="M0 0h-33.965l53.627 289.77h33.965Z" style="stroke-width:15;stroke-linecap:round;stroke-linejoin:round;stroke-miterlimit:10;stroke-dasharray:none;stroke-opacity:1" transform="translate(123.965 7.5)" fill="none" stroke="#000000" stroke-width="15" stroke-linecap="round" stroke-linejoin="round" stroke-miterlimit="10" stroke-dasharray="none" stroke-opacity="" data-original="#000000" class=""></path><path d="m0 0-40.067 216.5h-33.965l53.627-289.77H13.56L5.806-31.371" style="stroke-width:15;stroke-linecap:round;stroke-linejoin:round;stroke-miterlimit:10;stroke-dasharray:none;stroke-opacity:1" transform="translate(408.44 80.77)" fill="none" stroke="#000000" stroke-width="15" stroke-linecap="round" stroke-linejoin="round" stroke-miterlimit="10" stroke-dasharray="none" stroke-opacity="" data-original="#000000" class=""></path></g></g></svg>