<?xml version="1.0" encoding="UTF-8" standalone="no"?>
<!-- Created with Inkscape (http://www.inkscape.org/) -->

<svg
   version="1.1"
   id="svg2634"
   xml:space="preserve"
   width="682.66669"
   height="682.66669"
   viewBox="0 0 682.66669 682.66669"
   xmlns="http://www.w3.org/2000/svg"
   xmlns:svg="http://www.w3.org/2000/svg"><defs
     id="defs2638"><clipPath
       clipPathUnits="userSpaceOnUse"
       id="clipPath2656"><path
         d="M 0,512 H 512 V 0 H 0 Z"
         id="path2654" /></clipPath></defs><g
     id="g2640"
     transform="matrix(1.3333333,0,0,-1.3333333,0,682.66667)"><g
       id="g2642"
       transform="translate(366.9229,118)"><path
         d="M 0,0 H -221.846"
         style="fill:none;stroke:#000000;stroke-width:15;stroke-linecap:round;stroke-linejoin:round;stroke-miterlimit:10;stroke-dasharray:none;stroke-opacity:1"
         id="path2644" /></g><g
       id="g2646"
       transform="translate(361.4053,148)"><path
         d="M 0,0 H -210.811"
         style="fill:none;stroke:#000000;stroke-width:15;stroke-linecap:round;stroke-linejoin:round;stroke-miterlimit:10;stroke-dasharray:none;stroke-opacity:1"
         id="path2648" /></g><g
       id="g2650"><g
         id="g2652"
         clip-path="url(#clipPath2656)"><g
           id="g2658"
           transform="translate(379.5195,327.2695)"><path
             d="m 0,0 h -247.039 c -14.625,0 -26.481,11.855 -26.481,26.48 v 37.039 c 0,14.625 11.856,26.481 26.481,26.481 H 0 C 14.625,90 26.48,78.144 26.48,63.519 V 26.48 C 26.48,11.855 14.625,0 0,0 Z"
             style="fill:none;stroke:#000000;stroke-width:15;stroke-linecap:round;stroke-linejoin:round;stroke-miterlimit:10;stroke-dasharray:none;stroke-opacity:1"
             id="path2660" /></g><g
           id="g2662"
           transform="translate(321,504.5)"><path
             d="M 0,0 H 14.635 C 33.741,0 49.23,-15.489 49.23,-34.596 V -87.23 h -228.46 v 52.634 c 0,19.107 15.489,34.596 34.595,34.596 h 110.384"
             style="fill:none;stroke:#000000;stroke-width:15;stroke-linecap:round;stroke-linejoin:round;stroke-miterlimit:10;stroke-dasharray:none;stroke-opacity:1"
             id="path2664" /></g><g
           id="g2666"
           transform="translate(192.0508,297.2695)"><path
             d="M 0,0 H -71.732 V 30 H 199.631 V 0 H 32"
             style="fill:none;stroke:#000000;stroke-width:15;stroke-linecap:round;stroke-linejoin:round;stroke-miterlimit:10;stroke-dasharray:none;stroke-opacity:1"
             id="path2668" /></g><g
           id="g2670"
           transform="translate(123.9648,7.5)"><path
             d="M 0,0 H -33.965 L 19.662,289.77 H 53.627 Z"
             style="fill:none;stroke:#000000;stroke-width:15;stroke-linecap:round;stroke-linejoin:round;stroke-miterlimit:10;stroke-dasharray:none;stroke-opacity:1"
             id="path2672" /></g><g
           id="g2674"
           transform="translate(408.4404,80.7695)"><path
             d="M 0,0 -40.067,216.5 H -74.032 L -20.405,-73.27 H 13.56 l -7.754,41.899"
             style="fill:none;stroke:#000000;stroke-width:15;stroke-linecap:round;stroke-linejoin:round;stroke-miterlimit:10;stroke-dasharray:none;stroke-opacity:1"
             id="path2676" /></g></g></g></g></svg>
