<svg id="Capa_1" enable-background="new 0 0 512 512" height="512" viewBox="0 0 512 512" width="512" xmlns="http://www.w3.org/2000/svg"><g><g><path d="m320.074 65.258c-8.455-17.422-52.971-23.11-72.831-13.472s-17.498 30.348-6.907 52.17 25.399 36.491 45.26 26.853c19.86-9.638 42.934-48.129 34.478-65.551z" fill="#77d1b3"/><path d="m320.074 65.258c-2.303-4.746-7.293-8.614-13.721-11.546 4.406 18.609-17.056 53.052-35.69 62.095-8.896 4.317-16.776 3.747-23.72-.148 9.886 14.87 22.623 22.93 38.652 15.15 19.861-9.638 42.935-48.129 34.479-65.551z" fill="#61aab8"/><path d="m351.832 196.267c-4.021-18.943-45.865-35.164-67.459-30.581-21.594 4.584-24.28 25.255-19.244 48.983s15.886 41.528 37.481 36.944c21.595-4.583 53.243-36.402 49.222-55.346z" fill="#77d1b3"/><path d="m351.832 196.267c-1.431-6.741-7.664-13.132-16.057-18.369.499 1.11.883 2.232 1.123 3.366 4.021 18.943-27.626 50.762-49.22 55.346-5.934 1.259-11.052.821-15.466-.959 6.306 12.059 15.941 19.031 30.398 15.963 21.595-4.584 53.243-36.403 49.222-55.347z" fill="#61aab8"/><path d="m379.979 311.807c-8.121-17.581-52.52-24.118-72.561-14.861s-18.076 30.01-7.905 52.03c10.172 22.021 24.699 36.97 44.74 27.713s43.847-47.301 35.726-64.882z" fill="#77d1b3"/><path d="m379.979 311.807c-2.262-4.896-7.342-8.932-13.921-12.013 4.562 18.577-17.765 53.128-36.738 61.892-8.651 3.996-16.272 3.474-22.961-.173 9.541 14.602 21.977 22.528 37.894 15.175 20.041-9.256 43.847-47.301 35.726-64.881z" fill="#61aab8"/><path d="m416.308 504.126s-27.364 0-63.606 0c-49.437 0-84.546-28.284-99.982-43.676v8.121c0 19.631-15.913 35.554-35.554 35.554h-57.363c-29.618 0-46.971-14.103-46.971-31.492 0-14.736 12.471-27.112 34.31-30.541-32.126-38.04-41.124-111.168 25.68-140.608-.832-39.383-11.167-101.281-24.749-145.602-53.543 4.317-92.257-8.333-92.257-56.127 0-54.774 64.54-99.572 126.96-90.772 69.944 9.865 99.184 115.03 106.219 173.722 18.321 152.638 43.644 213.593 141.641 258.447 39.904 18.265 31.503 62.974-14.328 62.974z" fill="#ecb880"/><path d="m430.635 441.151c-97.997-44.854-123.32-105.808-141.641-258.447-7.035-58.691-36.276-163.857-106.219-173.722-11.1-1.565-22.265-1.427-33.124.153 69.267 10.669 98.283 115.141 105.287 173.569 18.321 152.638 43.644 213.593 141.641 258.447 39.904 18.265 31.504 62.975-14.326 62.975h34.056c45.83 0 54.231-44.709 14.326-62.975z" fill="#e5936a"/><path d="m161.289 204.149c-38.245 15.514-64.049 40.91-57.634 56.723 6.415 15.814 42.619 16.057 80.864.543s52.737-36.321 46.323-52.136c-6.415-15.812-31.308-20.644-69.553-5.13z" fill="#ecb880"/></g><g><path d="m434.025 434.61c-9.999-4.582-18.859-9.142-27.087-13.94-3.576-2.087-8.17-.877-10.257 2.7-2.086 3.579-.877 8.171 2.701 10.257 8.656 5.048 17.944 9.83 28.397 14.62 13.874 6.351 21.98 16.936 21.154 27.625-.697 9.021-7.714 16.27-18.772 19.39-4.078 1.153-8.658 1.737-13.611 1.737h-63.701c-44.202 0-76.291-23.753-92.636-39.407v-16.162c0-4.142-3.359-7.499-7.501-7.499s-7.499 3.358-7.499 7.501v27.459c0 15.498-12.608 28.108-28.107 28.108h-57.452c-23.281 0-39.541-9.885-39.541-24.04 0-11.58 10.739-20.462 28.025-23.181 2.676-.421 4.917-2.252 5.863-4.79s.45-5.389-1.298-7.458c-18.405-21.792-26.784-53.679-20.851-79.347 4.601-19.902 17.297-35.803 36.894-46.364 10.451-5.615 22.092-9.318 33.666-11.669 4.06-.824 6.682-4.783 5.858-8.842-.824-4.06-4.782-6.682-8.842-5.858-6.925 1.406-13.484 3.188-19.659 5.311-.331-5.955-.833-12.314-1.506-19.042 3.019-1.041 6.016-2.154 8.963-3.35 10.727-4.352 20.068-9.273 27.763-14.626 3.4-2.365 4.239-7.039 1.874-10.44-2.365-3.399-7.039-4.239-10.44-1.873-12.379 8.611-25.801 13.697-38.774 18.019-30.954 10.312-54.138 6.351-57.279-1.394-3.593-8.859 15.497-31.588 53.591-47.04 13.916-5.646 26.746-8.733 37.102-8.929 4.142-.079 7.435-3.5 7.357-7.642-.078-4.093-3.42-7.358-7.496-7.358-.048 0-.097 0-.145.001-10.405.198-22.188 2.632-35.105 7.231-2.512-11.369-5.194-22.075-8.016-32.008 5.085-.563 10.34-1.258 15.763-2.097 4.094-.634 6.899-4.466 6.265-8.56-.633-4.093-4.468-6.886-8.559-6.265-11.078 1.715-22.696 3.025-33.939 3.462-28.896 1.113-49.491-3.81-61.287-14.692-8.676-8.004-12.894-19.338-12.894-34.649 0-8.984 1.941-17.92 5.771-26.561 1.678-3.787-.031-8.218-3.818-9.896-3.787-1.682-8.217.03-9.896 3.817-4.683 10.568-7.057 21.549-7.057 32.639 0 19.458 5.963 34.825 17.724 45.675 19.365 17.864 50.433 19.982 76.705 18.436 3.211 11.046 6.32 23.434 9.135 36.396-34.268 15.564-63.913 41.952-55.101 63.677 4.769 11.755 18.565 16.646 35.838 16.646 9.672 0 20.434-1.542 31.31-4.262.701 7.446 1.182 14.395 1.43 20.76-26.127 12.883-42.115 33.329-47.81 57.967-6.229 26.947.39 58.38 16.922 83.004-17.975 6.154-29.047 19.169-29.047 35.151 0 22.987 22.428 39.04 54.542 39.04h57.451c21.012 0 38.56-15.111 42.35-35.035 19.78 16.26 51.661 35.036 93.392 35.036h63.701c6.332 0 12.284-.774 17.687-2.302 17.105-4.827 28.467-17.346 29.651-32.671 1.324-17.125-10.12-33.379-29.862-42.416z"/><path d="m88.304 45.869c24.311-23.093 60.066-34.526 93.311-29.842 64.163 9.049 93.037 109.516 99.983 167.454 7.898 65.799 16.424 108.223 28.51 141.855 12.411 34.538 30.282 63.693 59.283 87.595 3.189 2.627 7.917 2.186 10.558-1.018 2.634-3.197 2.179-7.924-1.018-10.559-8.544-7.041-16.131-14.583-22.927-22.858 8.571-6.432 17.15-16.39 23.608-27.692 4.454-7.796 14.089-27.5 7.367-42.063-2.75-5.949-11.111-16.659-36.207-21.544-12.735-2.478-25.97-2.482-36.526-.192-2.234-8.938-4.339-18.566-6.349-29.041 23.52-7.475 56.455-39.639 51.42-63.344-4.573-21.564-41.745-37.181-66.622-37.328-1.135-6.02-2.533-12.663-4.24-19.721.153-.072.305-.134.458-.208 10.897-5.287 22.848-17.94 31.19-33.018 4.407-7.968 13.893-28.073 6.816-42.653-7.071-14.587-28.737-19.574-37.724-21.04-15.124-2.47-30.492-1.501-41.375 2.461-18.044-24.39-39.512-38.467-64.109-41.936-37.669-5.308-78.186 7.65-105.736 33.821-3.003 2.853-3.125 7.6-.272 10.604 2.85 2.998 7.598 3.121 10.601.267zm285.055 269.159c5.101 11.052-10.215 39.557-26.297 51.484-13.284-19.628-22.234-42.065-28.917-65.049 19.678-4.074 50.214 2.747 55.214 13.565zm-28.717-117.296c2.637 12.414-20.803 38.519-39.441 45.336-5.608-32.803-8.185-58.691-9.979-70.779 20.142.917 46.984 13.958 49.42 25.443zm-57.866-142.28c13.489 2.202 23.947 7.218 26.645 12.783 2.7 5.563.17 16.885-6.446 28.845-6.123 11.068-14.886 20.978-22.448 25.582-6.579-23.018-15.726-46.342-28.006-66.554 8.233-2.093 19.511-2.41 30.255-.656z"/><path d="m126.837 58.964v6.344c0 4.143 3.358 7.5 7.5 7.5s7.5-3.357 7.5-7.5v-6.344c0-4.143-3.358-7.5-7.5-7.5s-7.5 3.357-7.5 7.5z"/></g></g></svg>