<svg viewBox="0 0 48 48" xmlns="http://www.w3.org/2000/svg"><g id="Lego_toy" data-name="Lego toy"><path d="m25 30a3 3 0 1 0 3 3 3 3 0 0 0 -3-3zm0 4a1 1 0 0 1 0-2 1 1 0 0 1 0 2z"/><path d="m30 33a3 3 0 1 0 3-3 3 3 0 0 0 -3 3zm4 0a1 1 0 0 1 -2 0 1 1 0 0 1 2 0z"/><path d="m25 38a3 3 0 1 0 3 3 3 3 0 0 0 -3-3zm0 4a1 1 0 0 1 0-2 1 1 0 0 1 0 2z"/><path d="m17 30a3 3 0 1 0 3 3 3 3 0 0 0 -3-3zm0 4a1 1 0 0 1 0-2 1 1 0 0 1 0 2z"/><path d="m17 38a3 3 0 1 0 3 3 3 3 0 0 0 -3-3zm0 4a1 1 0 0 1 0-2 1 1 0 0 1 0 2z"/><path d="m33 38a3 3 0 1 0 3 3 3 3 0 0 0 -3-3zm0 4a1 1 0 0 1 0-2 1 1 0 0 1 0 2z"/><path d="m41 36a3 3 0 1 0 -3-3 3 3 0 0 0 3 3zm0-4a1 1 0 0 1 0 2 1 1 0 0 1 0-2z"/><path d="m41 44a3 3 0 1 0 -3-3 3 3 0 0 0 3 3zm0-4a1 1 0 0 1 0 2 1 1 0 0 1 0-2z"/><path d="m47 26h-13v-9h9a1 1 0 0 0 1-1v-11a1 1 0 0 0 -1-1h-1v-2a2 2 0 0 0 -2-2h-2a2 2 0 0 0 -2 2v2h-2v-2a2 2 0 0 0 -2-2h-2a2 2 0 0 0 -2 2v2h-2v-2a2 2 0 0 0 -2-2h-2a2 2 0 0 0 -2 2v2h-1a1 1 0 0 0 -1 1v10h-2v-2a2 2 0 0 0 -2-2h-2a2 2 0 0 0 -2 2v2h-2v-2a2 2 0 0 0 -2-2h-2a2 2 0 0 0 -2 2v2h-1a1 1 0 0 0 -1 1v11a1 1 0 0 0 1 1h9v19a1 1 0 0 0 1 1h36a1 1 0 0 0 1-1v-20a1 1 0 0 0 -1-1zm-9-24h2v2h-2zm-8 0h2v2h-2zm-8 0h2v2h-2zm-2 4h22v9h-22zm-8 7h2v2h-2zm-8 0h2v2h-2zm-2 4h30v9h-30zm44 29h-34v-18h34z"/></g></svg>