<svg viewBox="0 0 48 48" xmlns="http://www.w3.org/2000/svg"><g id="Lego_toy" data-name="Lego toy"><path d="m11 27h36v20h-36z" fill="#db5669"/><path d="m47 27v18h-29a4 4 0 0 1 -4-4v-14z" fill="#f26674"/><circle cx="25" cy="33" fill="#c4455e" r="2"/><circle cx="33" cy="33" fill="#c4455e" r="2"/><circle cx="25" cy="41" fill="#c4455e" r="2"/><circle cx="17" cy="33" fill="#c4455e" r="2"/><path d="m19 41a2 2 0 1 1 -2.82-1.82 2 2 0 0 1 2.82 1.82z" fill="#c4455e"/><path d="m18.82 41.82a2 2 0 0 1 -2.64-2.64 2 2 0 0 1 2.64 2.64z" fill="#db5669"/><circle cx="33" cy="41" fill="#c4455e" r="2"/><circle cx="41" cy="33" fill="#c4455e" r="2"/><circle cx="41" cy="41" fill="#c4455e" r="2"/><path d="m1 16h32v11h-32z" fill="#6fabe6"/><path d="m33 16v9h-25a4 4 0 0 1 -4-4v-5z" fill="#82bcf4"/><path d="m7 13v3h-4v-3a1 1 0 0 1 1-1h2a1 1 0 0 1 1 1z" fill="#5b9ad8"/><path d="m7 13v2a3 3 0 0 1 -3-3h2a1 1 0 0 1 1 1z" fill="#6fabe6"/><path d="m12 12h2a1 1 0 0 1 1 1v3a0 0 0 0 1 0 0h-4a0 0 0 0 1 0 0v-3a1 1 0 0 1 1-1z" fill="#5b9ad8"/><path d="m19 5h24v11h-24z" fill="#fc6"/><path d="m22 1h2a1 1 0 0 1 1 1v3a0 0 0 0 1 0 0h-4a0 0 0 0 1 0 0v-3a1 1 0 0 1 1-1z" fill="#ffba55"/><path d="m30 1h2a1 1 0 0 1 1 1v3a0 0 0 0 1 0 0h-4a0 0 0 0 1 0 0v-3a1 1 0 0 1 1-1z" fill="#ffba55"/><path d="m38 1h2a1 1 0 0 1 1 1v3a0 0 0 0 1 0 0h-4a0 0 0 0 1 0 0v-3a1 1 0 0 1 1-1z" fill="#ffba55"/><g fill="#db5669"><path d="m26.82 41.82a2 2 0 0 1 -2.64-2.64 2 2 0 0 1 2.64 2.64z"/><path d="m34.82 41.82a2 2 0 0 1 -2.64-2.64 2 2 0 0 1 2.64 2.64z"/><path d="m42.82 41.82a2 2 0 0 1 -2.64-2.64 2 2 0 0 1 2.64 2.64z"/><path d="m18.82 33.82a2 2 0 0 1 -2.64-2.64 2 2 0 0 1 2.64 2.64z"/><path d="m26.82 33.82a2 2 0 0 1 -2.64-2.64 2 2 0 0 1 2.64 2.64z"/><path d="m34.82 33.82a2 2 0 0 1 -2.64-2.64 2 2 0 0 1 2.64 2.64z"/><path d="m42.82 33.82a2 2 0 0 1 -2.64-2.64 2 2 0 0 1 2.64 2.64z"/></g><path d="m15 13v2a3 3 0 0 1 -3-3h2a1 1 0 0 1 1 1z" fill="#6fabe6"/><path d="m43 5v9h-17a4 4 0 0 1 -4-4v-5z" fill="#ffde76"/><path d="m25 2v2a3 3 0 0 1 -3-3h2a1 1 0 0 1 1 1z" fill="#fc6"/><path d="m33 2v2a3 3 0 0 1 -3-3h2a1 1 0 0 1 1 1z" fill="#fc6"/><path d="m41 2v2a3 3 0 0 1 -3-3h2a1 1 0 0 1 1 1z" fill="#fc6"/><path d="m25 30a3 3 0 1 0 3 3 3 3 0 0 0 -3-3zm0 4a1 1 0 0 1 0-2 1 1 0 0 1 0 2z"/><path d="m30 33a3 3 0 1 0 3-3 3 3 0 0 0 -3 3zm4 0a1 1 0 0 1 -2 0 1 1 0 0 1 2 0z"/><path d="m25 38a3 3 0 1 0 3 3 3 3 0 0 0 -3-3zm0 4a1 1 0 0 1 0-2 1 1 0 0 1 0 2z"/><path d="m17 30a3 3 0 1 0 3 3 3 3 0 0 0 -3-3zm0 4a1 1 0 0 1 0-2 1 1 0 0 1 0 2z"/><path d="m17 38a3 3 0 1 0 3 3 3 3 0 0 0 -3-3zm0 4a1 1 0 0 1 0-2 1 1 0 0 1 0 2z"/><path d="m33 38a3 3 0 1 0 3 3 3 3 0 0 0 -3-3zm0 4a1 1 0 0 1 0-2 1 1 0 0 1 0 2z"/><path d="m41 36a3 3 0 1 0 -3-3 3 3 0 0 0 3 3zm0-4a1 1 0 0 1 0 2 1 1 0 0 1 0-2z"/><path d="m41 44a3 3 0 1 0 -3-3 3 3 0 0 0 3 3zm0-4a1 1 0 0 1 0 2 1 1 0 0 1 0-2z"/><path d="m47 26h-13v-9h9a1 1 0 0 0 1-1v-11a1 1 0 0 0 -1-1h-1v-2a2 2 0 0 0 -2-2h-2a2 2 0 0 0 -2 2v2h-2v-2a2 2 0 0 0 -2-2h-2a2 2 0 0 0 -2 2v2h-2v-2a2 2 0 0 0 -2-2h-2a2 2 0 0 0 -2 2v2h-1a1 1 0 0 0 -1 1v10h-2v-2a2 2 0 0 0 -2-2h-2a2 2 0 0 0 -2 2v2h-2v-2a2 2 0 0 0 -2-2h-2a2 2 0 0 0 -2 2v2h-1a1 1 0 0 0 -1 1v11a1 1 0 0 0 1 1h9v19a1 1 0 0 0 1 1h36a1 1 0 0 0 1-1v-20a1 1 0 0 0 -1-1zm-9-24h2v2h-2zm-8 0h2v2h-2zm-8 0h2v2h-2zm-2 4h22v9h-22zm-8 7h2v2h-2zm-8 0h2v2h-2zm-2 4h30v9h-30zm44 29h-34v-18h34z"/></g></svg>