<svg id="Capa_1" enable-background="new 0 0 511.682 511.682" height="512" viewBox="0 0 511.682 511.682" width="512" xmlns="http://www.w3.org/2000/svg"><g><path d="m396.721 233.632c-4.143 0-7.5 3.358-7.5 7.5v130.522c-54.012 2.835-82.067 36.079-95.813 62.016-20.534-20.111-54.6-20.111-75.134 0-13.746-25.936-41.8-59.18-95.813-62.016v-53.032c0-4.142-3.357-7.5-7.5-7.5s-7.5 3.358-7.5 7.5v60.33c0 65.186 77.084 127.879 81.026 131.04 1.318 1.08 3.04 1.69 4.743 1.69h125.221c1.701 0 3.427-.612 4.743-1.69 3.942-3.161 81.026-65.854 81.026-131.04v-137.82c.001-4.142-3.357-7.5-7.499-7.5zm-104.911 224.135 15.565 38.915h-103.068l15.565-38.914c11.469-32.752 57.636-33.252 71.938-.001zm-168.917-71.048c48.406 3.016 73.004 33.444 85.347 60.498-.839 1.609-18.069 44.415-18.069 44.415-18.19-16.391-62.458-60.459-67.278-104.913zm198.616 104.907s-17.228-42.8-18.067-44.408c12.343-27.054 36.941-57.482 85.345-60.498-4.826 44.393-49.092 88.498-67.278 104.906z"/><path d="m184.391 234.657 66.151 66.035c3.533 2.923 7.065 2.923 10.598 0l66.099-65.983c30.344-29.55 7.659-82.393-33.743-82.393-14.981 0-28.693 6.826-37.654 18.129-8.961-11.304-22.673-18.129-37.654-18.129-41.704 0-64.267 52.647-33.797 82.341zm33.796-67.341c13.563 0 25.614 8.13 30.701 20.713 4.635 6.251 9.271 6.251 13.906 0 5.087-12.583 17.139-20.713 30.701-20.713 29.976 0 41.358 35.694 23.578 56.348l-61.232 61.123-60.905-60.797c-18.127-20.533-7.862-56.674 23.251-56.674z"/><path d="m494.795 90.964-93.918-62.612c-.546-.364-64.431-21.752-64.431-21.752-.053-.017-.104-.036-.157-.052l-17.85-5.949c-10.829-2.143-18.209 1.471-22.139 10.843h-24.119c-4.143 0-7.5 3.358-7.5 7.5s3.357 7.5 7.5 7.5h22.395c-3.515 18.181-19.542 31.957-38.735 31.957s-35.22-13.776-38.735-31.957h22.395c4.143 0 7.5-3.358 7.5-7.5s-3.357-7.5-7.5-7.5h-24.119c-3.929-9.369-11.306-12.984-22.132-10.845 0 0-81.897 27.393-82.445 27.756l-93.918 62.611c-3.147 2.098-4.239 6.211-2.548 9.594l31.307 62.612c2.383 3.409 5.225 4.716 8.527 3.922l53.288-13.322v132.162c0 4.142 3.357 7.5 7.5 7.5s7.5-3.358 7.5-7.5v-139.617c19.252-31.986 25.955-75.107 4.677-107.875l43.105-14.365c2.666 44.908 40.031 80.63 85.597 80.63s82.931-35.722 85.597-80.63l43.105 14.365c-21.278 32.768-14.575 75.89 4.677 107.875v62.137c0 4.142 3.357 7.5 7.5 7.5s7.5-3.358 7.5-7.5v-54.682l53.288 13.322c3.302.794 6.145-.513 8.527-3.922l31.307-62.612c1.693-3.383.601-7.496-2.546-9.594zm-464.079 8.808 13.546-9.031 28.441 56.256-16.332 4.083zm79.446 37.861-22.536 5.634-30.793-60.907 56.465-37.643c14.043 19.799 18.543 59.466-3.136 92.916zm145.679-47.929c-38.956 0-70.657-31.643-70.76-70.575l12.918-4.305c3.002-1.001 3.384 2.271 3.384 4.158.023 30.009 24.444 54.417 54.458 54.417s54.435-24.408 54.458-54.417c0-1.893.383-5.158 3.391-4.155l12.911 4.303c-.103 38.932-31.804 70.574-70.76 70.574zm142.543-44.987 56.465 37.643-30.792 60.907-22.535-5.634c-15.967-27.487-22.457-65.274-3.138-92.916zm56.927 106.364-16.333-4.083 28.441-56.256 13.546 9.031z"/><path d="m255.841 464.718c-4.142 0-7.5-3.358-7.5-7.5 0-4.142 3.358-7.5 7.5-7.5 4.142 0 7.5 3.358 7.5 7.5 0 4.142-3.358 7.5-7.5 7.5z"/></g></svg>