<svg enable-background="new 0 0 512 512" viewBox="0 0 512 512" xmlns="http://www.w3.org/2000/svg"><g id="_x30_8_Baby_Phone"><g><path d="m144.855 228.371v233.219c0 19.795 16.103 35.897 35.897 35.897h150.495c19.795 0 35.897-16.103 35.897-35.897v-233.219c0-19.795-16.103-35.897-35.897-35.897h-150.494c-19.795 0-35.898 16.103-35.898 35.897zm15.093 0c0-11.474 9.33-20.804 20.804-20.804h150.495c11.474 0 20.804 9.33 20.804 20.804v233.219c0 11.474-9.33 20.804-20.804 20.804h-150.494c-11.474 0-20.804-9.33-20.804-20.804v-233.219z"/><path d="m319.132 177.396c4.171 0 7.546-3.375 7.546-7.546v-60.143c0-19.972-16.25-36.222-36.222-36.222s-36.222 16.25-36.222 36.222v60.143c0 4.171 3.375 7.546 7.546 7.546s7.546-3.375 7.546-7.546v-60.143c0-11.651 9.477-21.129 21.129-21.129s21.129 9.477 21.129 21.129v60.143c.001 4.171 3.376 7.546 7.548 7.546z"/><path d="m255.996 374.031c38.97 0 70.674-31.704 70.674-70.667 0-38.97-31.704-70.674-70.674-70.674-38.963 0-70.667 31.704-70.667 70.674 0 38.963 31.704 70.667 70.667 70.667zm0-126.248c30.65 0 55.581 24.931 55.581 55.581 0 30.643-24.931 55.574-55.581 55.574-30.643 0-55.574-24.931-55.574-55.574 0-30.65 24.932-55.581 55.574-55.581z"/><path d="m222.686 321.265c4.171 0 7.546-3.375 7.546-7.546v-20.709c0-4.171-3.375-7.546-7.546-7.546s-7.546 3.375-7.546 7.546v20.709c-.001 4.171 3.375 7.546 7.546 7.546z"/><path d="m255.996 338.525c4.171 0 7.546-3.375 7.546-7.546v-55.235c0-4.171-3.375-7.546-7.546-7.546s-7.546 3.375-7.546 7.546v55.235c0 4.17 3.375 7.546 7.546 7.546z"/><path d="m289.314 321.265c4.171 0 7.546-3.375 7.546-7.546v-20.709c0-4.171-3.375-7.546-7.546-7.546s-7.546 3.375-7.546 7.546v20.709c0 4.171 3.375 7.546 7.546 7.546z"/><path d="m221.197 399.714c-14.923 0-27.069 12.138-27.069 27.061 0 14.968 12.145 27.142 27.069 27.142s27.061-12.175 27.061-27.142c0-14.923-12.137-27.061-27.061-27.061zm0 39.111c-6.603 0-11.976-5.402-11.976-12.049 0-6.596 5.372-11.968 11.976-11.968 6.596 0 11.968 5.372 11.968 11.968 0 6.647-5.372 12.049-11.968 12.049z"/><path d="m290.803 399.714c-14.923 0-27.069 12.138-27.069 27.061 0 14.968 12.145 27.142 27.069 27.142s27.069-12.175 27.069-27.142c-.001-14.923-12.146-27.061-27.069-27.061zm0 39.111c-6.603 0-11.976-5.402-11.976-12.049 0-6.596 5.372-11.968 11.976-11.968s11.976 5.372 11.976 11.968c0 6.647-5.373 12.049-11.976 12.049z"/><path d="m245.192 14.513c-40.194 0-72.893 32.699-72.893 72.885 0 4.171 3.375 7.546 7.546 7.546s7.546-3.375 7.546-7.546c0-31.866 25.926-57.792 57.8-57.792 4.171 0 7.546-3.375 7.546-7.546s-3.373-7.547-7.545-7.547z"/><path d="m245.192 40.491c-25.867 0-46.907 21.04-46.907 46.907 0 4.171 3.375 7.546 7.546 7.546s7.546-3.375 7.546-7.546c0-17.54 14.275-31.815 31.815-31.815 4.171 0 7.546-3.375 7.546-7.546s-3.374-7.546-7.546-7.546z"/><path d="m245.192 66.476c-11.541 0-20.93 9.389-20.93 20.93 0 4.171 3.375 7.546 7.546 7.546s7.546-3.375 7.546-7.546c0-3.221 2.616-5.837 5.837-5.837 4.171 0 7.546-3.375 7.546-7.546.002-4.172-3.373-7.547-7.545-7.547z"/></g></g><g id="Layer_1"/></svg>