<?xml version="1.0" encoding="iso-8859-1"?>
<!-- Generator: Adobe Illustrator 19.0.0, SVG Export Plug-In . SVG Version: 6.00 Build 0)  -->
<svg version="1.1" id="Capa_1" xmlns="http://www.w3.org/2000/svg" xmlns:xlink="http://www.w3.org/1999/xlink" x="0px" y="0px"
	 viewBox="0 0 512 512" style="enable-background:new 0 0 512 512;" xml:space="preserve">
<path style="fill:#E86478;" d="M418.138,281.393H226.003V173.16H402.71c8.521,0,15.428,6.908,15.428,15.428V281.393z"/>
<path style="fill:#F8CA4F;" d="M429.781,281.393H33.21c-14.199,0-25.71,11.51-25.71,25.71v60.021c0,14.198,11.51,25.71,25.71,25.71
	h447.369c19.711,0,30.942-22.522,19.084-38.266l-46.231-61.38C447.837,285.76,439.079,281.393,429.781,281.393z"/>
<path style="opacity:0.1;enable-background:new    ;" d="M47.111,367.122v-60.021c0-14.199,11.51-25.71,25.71-25.71H33.21
	c-14.199,0-25.71,11.51-25.71,25.71v60.021c0,14.199,11.51,25.71,25.71,25.71h39.611C58.622,392.832,47.111,381.322,47.111,367.122z
	"/>
<circle style="fill:#E86478;" cx="130.544" cy="392.83" r="77.572"/>
<circle style="opacity:0.15;enable-background:new    ;" cx="130.544" cy="392.83" r="34.021"/>
<circle style="fill:#E86478;" cx="358.07" cy="392.83" r="77.572"/>
<circle style="opacity:0.15;enable-background:new    ;" cx="358.07" cy="392.83" r="34.021"/>
<rect x="47.111" y="105.622" style="fill:#61C6AD;" width="178.895" height="175.775"/>
<rect x="47.111" y="105.622" style="opacity:0.1;enable-background:new    ;" width="178.895" height="29.802"/>
<path style="fill:#92D2E7;" d="M237.943,41.597H35.171c-10.254,0-18.567,8.312-18.567,18.567v26.891
	c0,10.254,8.313,18.567,18.567,18.567h202.772c10.254,0,18.566-8.312,18.566-18.567V60.164
	C256.51,49.91,248.197,41.597,237.943,41.597z"/>
<path style="opacity:0.1;enable-background:new    ;" d="M49.773,87.055V60.164c0-10.254,8.312-18.567,18.567-18.567H35.171
	c-10.254,0-18.567,8.312-18.567,18.567v26.891c0,10.254,8.312,18.567,18.567,18.567H68.34
	C58.086,105.621,49.773,97.309,49.773,87.055z"/>
<rect x="316.909" y="107.682" style="fill:#F8CA4F;" width="72.702" height="65.472"/>
<rect x="316.909" y="107.682" style="opacity:0.1;enable-background:new    ;" width="72.702" height="22.519"/>
<path style="fill:#92D2E7;" d="M396.276,107.686h-86.022c-6.464,0-11.705-5.24-11.705-11.705v-22.41
	c0-6.464,5.24-11.705,11.705-11.705h86.022c6.464,0,11.705,5.24,11.705,11.705v22.411
	C407.981,102.446,402.74,107.686,396.276,107.686z"/>
<path style="opacity:0.1;enable-background:new    ;" d="M322.071,95.981v-22.41c0-6.464,5.24-11.705,11.705-11.705h-23.523
	c-6.464,0-11.705,5.24-11.705,11.705v22.411c0,6.464,5.24,11.705,11.705,11.705h23.523
	C327.311,107.686,322.071,102.446,322.071,95.981z"/>
<circle style="fill:#FFFFFF;" cx="136.554" cy="188.024" r="43.021"/>
<rect x="226.006" y="173.164" style="opacity:0.1;enable-background:new    ;" width="32.841" height="108.233"/>
<path d="M358.071,351.307c-22.897,0-41.525,18.629-41.525,41.525c0,22.897,18.629,41.525,41.525,41.525
	c22.897,0,41.525-18.629,41.525-41.525C399.596,369.935,380.967,351.307,358.071,351.307z M358.071,419.357
	c-14.626,0-26.525-11.898-26.525-26.525s11.899-26.525,26.525-26.525s26.525,11.898,26.525,26.525
	C384.596,407.458,372.696,419.357,358.071,419.357z M130.541,351.307c-22.897,0-41.525,18.629-41.525,41.525
	c0,6.821,1.692,13.589,4.893,19.571c1.955,3.651,6.499,5.029,10.152,3.073c3.652-1.954,5.028-6.499,3.074-10.151
	c-2.069-3.866-3.119-8.069-3.119-12.492c0-14.626,11.899-26.525,26.525-26.525c14.626,0,26.526,11.898,26.526,26.525
	c0,14.626-11.899,26.525-26.526,26.525c-0.856,0-1.715-0.04-2.553-0.12c-4.123-0.404-7.785,2.631-8.179,6.754
	c-0.393,4.123,2.63,7.784,6.754,8.178c1.309,0.125,2.647,0.189,3.978,0.189c22.898,0,41.526-18.629,41.526-41.525
	C172.067,369.935,153.438,351.307,130.541,351.307z M187.073,188.025c0-27.855-22.662-50.516-50.516-50.516
	S86.04,160.171,86.04,188.025s22.662,50.516,50.516,50.516S187.073,215.88,187.073,188.025z M101.042,188.025
	c0-19.584,15.932-35.516,35.516-35.516s35.516,15.932,35.516,35.516s-15.932,35.516-35.516,35.516S101.042,207.609,101.042,188.025z
	 M505.654,350.054l-46.231-61.378c-6.971-9.257-18.052-14.783-29.641-14.783h-4.142v-13.598c0-4.143-3.358-7.5-7.5-7.5
	c-4.142,0-7.5,3.357-7.5,7.5v13.598H233.504v-93.232h169.207c4.372,0,7.928,3.557,7.928,7.928v33.301c0,4.143,3.358,7.5,7.5,7.5
	c4.142,0,7.5-3.357,7.5-7.5v-33.301c0-12.643-10.286-22.929-22.929-22.929h-5.593v-50.515c10.198-0.445,18.365-8.856,18.365-19.164
	V73.571c0-10.59-8.615-19.206-19.206-19.206h-86.022c-10.589,0-19.206,8.615-19.206,19.206v22.41
	c0,10.306,8.166,18.719,18.365,19.164v50.515h-75.91v-52.537h4.44c14.373,0,26.067-11.693,26.067-26.067V60.164
	c0-14.373-11.693-26.067-26.067-26.067H35.171c-14.373,0-26.067,11.693-26.067,26.067v26.892c0,14.373,11.693,26.067,26.067,26.067
	h4.44v26.419c0,4.143,3.358,7.5,7.5,7.5s7.5-3.357,7.5-7.5v-26.419h163.891v160.77H54.611v-91.741c0-4.143-3.358-7.5-7.5-7.5
	s-7.5,3.357-7.5,7.5v91.741H33.21C14.897,273.893,0,288.79,0,307.103v60.022c0,18.311,14.897,33.209,33.21,33.209h12.611
	c3.812,43.405,40.341,77.569,84.719,77.569s80.907-34.164,84.719-77.569h58.091c3.812,43.405,40.341,77.569,84.719,77.569
	s80.907-34.164,84.719-77.569h37.788c11.981,0,22.745-6.66,28.092-17.381C514.017,372.229,512.862,359.624,505.654,350.054z
	 M382.116,165.66h-57.704v-50.473h57.704V165.66z M306.048,95.981v-22.41c0-2.318,1.886-4.205,4.205-4.205h86.022
	c2.318,0,4.205,1.887,4.205,4.205v22.41c0,2.318-1.886,4.205-4.205,4.205h-86.022C307.935,100.186,306.048,98.3,306.048,95.981z
	 M35.171,98.122c-6.102,0-11.066-4.965-11.066-11.066V60.164c0-6.101,4.964-11.066,11.066-11.066h202.773
	c6.102,0,11.066,4.965,11.066,11.066v26.892c0,6.102-4.964,11.066-11.066,11.066H35.171z M130.541,462.901
	c-38.636,0-70.069-31.433-70.069-70.069s31.433-70.068,70.069-70.068s70.069,31.433,70.069,70.068
	C200.609,431.469,169.177,462.901,130.541,462.901z M358.071,462.901c-38.636,0-70.069-31.433-70.069-70.069
	s31.433-70.068,70.069-70.068s70.069,31.433,70.069,70.068C428.14,431.469,396.707,462.901,358.071,462.901z M495.247,376.257
	c-2.834,5.683-8.317,9.075-14.668,9.075H442.79c-3.812-43.405-40.341-77.568-84.719-77.568s-80.907,34.163-84.719,77.568h-58.091
	c-3.812-43.405-40.341-77.568-84.719-77.568s-80.907,34.163-84.719,77.568H33.21c-10.041,0-18.209-8.168-18.209-18.209v-60.022
	c0-10.04,8.168-18.21,18.209-18.21h396.571c6.904,0,13.505,3.292,17.659,8.808l46.231,61.378
	C497.492,364.151,498.082,370.573,495.247,376.257z"/>
<g>
</g>
<g>
</g>
<g>
</g>
<g>
</g>
<g>
</g>
<g>
</g>
<g>
</g>
<g>
</g>
<g>
</g>
<g>
</g>
<g>
</g>
<g>
</g>
<g>
</g>
<g>
</g>
<g>
</g>
</svg>
